# Created by DisUnity v0.3.4
v -0.07493581 0.10091388 -0.0022308596
v 0.1463206 0.06607841 0.32827765
v -0.07168172 0.088554524 0.3290421
v 0.15962611 0.07471463 -0.002230954
v 0.14211686 -0.053626772 0.32680434
v 0.15428557 -0.061836265 -0.0022308237
v -0.07830016 -0.068977185 0.32775193
v -0.08213408 -0.07956705 -0.0022306875
v -0.07168172 0.088554524 0.3290421
v -0.07830016 -0.068977185 0.32775193
v -0.07493581 0.10091388 -0.0022308596
v -0.07168172 0.088554524 0.3290421
v 0.4383243 0.17663443 0.5858829
v 0.092968404 0.2656392 0.746168
v 0.1463206 0.06607841 0.32827765
v 0.29717687 0.18891993 1.0532398
v 0.111172244 0.26859426 1.0042282
v 0.0956619 0.19537899 1.4574761
v -0.03643732 0.28829536 1.3454628
v -0.48604873 0.10584375 1.7678511
v -0.63431454 0.14453992 1.6570772
v -0.75343585 0.0678344 2.2330704
v -0.97096133 0.09929789 2.1717293
v -0.8604226 0.040918272 2.7393243
v -0.75343585 0.0678344 2.2330704
v -0.75149393 0.04699128 2.7160566
v -0.07830016 -0.068977185 0.32775193
v 0.092968404 0.2656392 0.746168
v 0.08383232 -0.25946125 0.7440092
v -0.07168172 0.088554524 0.3290421
v 0.111172244 0.26859426 1.0042282
v 0.100819305 -0.26861587 1.004182
v -0.03643732 0.28829536 1.3454628
v -0.05022349 -0.26345006 1.3414227
v -0.63431454 0.14453992 1.6570772
v -0.6418066 -0.12929429 1.6554838
v -0.97096133 0.09929789 2.1717293
v -0.9777477 -0.097082704 2.170033
v -0.86374515 -0.061513975 2.7396047
v -0.8604226 0.040918272 2.7393243
v 0.14211686 -0.053626772 0.32680434
v 0.08383232 -0.25946125 0.7440092
v 0.4317784 -0.1857978 0.58485514
v -0.07830016 -0.068977185 0.32775193
v 0.100819305 -0.26861587 1.004182
v 0.2890326 -0.2015047 1.0525446
v -0.05022349 -0.26345006 1.3414227
v 0.086666964 -0.2033231 1.4554576
v -0.6418066 -0.12929429 1.6554838
v -0.49013796 -0.09744908 1.7670513
v -0.9777477 -0.097082704 2.170033
v -0.7592418 -0.08368536 2.2315392
v -0.86374515 -0.061513975 2.7396047
v -0.7592418 -0.08368536 2.2315392
v -0.7533593 -0.064397864 2.7160041
v 0.1463206 0.06607841 0.32827765
v 0.4317784 -0.1857978 0.58485514
v 0.4383243 0.17663443 0.5858829
v 0.14211686 -0.053626772 0.32680434
v 0.2890326 -0.2015047 1.0525446
v 0.29717687 0.18891993 1.0532398
v 0.086666964 -0.2033231 1.4554576
v 0.0956619 0.19537899 1.4574761
v -0.49013796 -0.09744908 1.7670513
v -0.48604873 0.10584375 1.7678511
v -0.7592418 -0.08368536 2.2315392
v -0.75343585 0.0678344 2.2330704
v -0.75149393 0.04699128 2.7160566
v -0.7533593 -0.064397864 2.7160041
v -0.8604226 0.040918272 2.7393243
v -0.75149393 0.04699128 2.7160566
v -0.86374515 -0.061513975 2.7396047
v -0.7533593 -0.064397864 2.7160041
v -0.07493581 0.10091388 -0.0022308596
v 0.1463203 0.06607787 -0.33273858
v 0.15962611 0.07471463 -0.002230954
v -0.07168202 0.08855399 -0.33350286
v 0.14211656 -0.053627305 -0.33126503
v 0.15428557 -0.061836265 -0.0022308237
v -0.07830046 -0.06897772 -0.3322119
v -0.08213408 -0.07956705 -0.0022306875
v -0.07168202 0.08855399 -0.33350286
v -0.07493581 0.10091388 -0.0022308596
v -0.07830046 -0.06897772 -0.3322119
v -0.07168202 0.08855399 -0.33350286
v 0.43832377 0.17663291 -0.59034514
v 0.1463203 0.06607787 -0.33273858
v 0.09296775 0.26563728 -0.7506286
v 0.29717597 0.18891807 -1.0577021
v 0.11117132 0.26859245 -1.0086904
v 0.09566059 0.19537616 -1.4619379
v -0.036438543 0.28829262 -1.349925
v -0.4860503 0.10584091 -1.772312
v -0.6343161 0.14453726 -1.6615378
v -0.7534417 0.06784607 -2.2375312
v -0.9858292 0.09930965 -2.1715193
v -0.9124499 0.038609788 -2.7144384
v -0.810258 0.044484477 -2.6922584
v -0.7534417 0.06784607 -2.2375312
v -0.07830046 -0.06897772 -0.3322119
v 0.09296775 0.26563728 -0.7506286
v -0.07168202 0.08855399 -0.33350286
v 0.08383164 -0.25946313 -0.7484697
v 0.11117132 0.26859245 -1.0086904
v 0.10081841 -0.2686177 -1.0086417
v -0.036438543 0.28829262 -1.349925
v -0.05022468 -0.26345268 -1.3458834
v -0.6343161 0.14453726 -1.6615378
v -0.64180803 -0.12929696 -1.6599444
v -0.9858292 0.09930965 -2.1715193
v -0.9926269 -0.09707094 -2.1698232
v -0.91553974 -0.05985517 -2.713602
v -0.9124499 0.038609788 -2.7144384
v 0.14211656 -0.053627305 -0.33126503
v 0.08383164 -0.25946313 -0.7484697
v -0.07830046 -0.06897772 -0.3322119
v 0.43177786 -0.18579929 -0.58931684
v 0.10081841 -0.2686177 -1.0086417
v 0.28903165 -0.20150657 -1.0570049
v -0.05022468 -0.26345268 -1.3458834
v 0.08666565 -0.20332597 -1.4599177
v -0.64180803 -0.12929696 -1.6599444
v -0.49013957 -0.097451925 -1.7715122
v -0.9926269 -0.09707094 -2.1698232
v -0.7592438 -0.08367369 -2.2359996
v -0.91553974 -0.05985517 -2.713602
v -0.7592438 -0.08367369 -2.2359996
v -0.81192875 -0.06261696 -2.6915975
v 0.1463203 0.06607787 -0.33273858
v 0.43177786 -0.18579929 -0.58931684
v 0.14211656 -0.053627305 -0.33126503
v 0.43832377 0.17663291 -0.59034514
v 0.28903165 -0.20150657 -1.0570049
v 0.29717597 0.18891807 -1.0577021
v 0.08666565 -0.20332597 -1.4599177
v 0.09566059 0.19537616 -1.4619379
v -0.49013957 -0.097451925 -1.7715122
v -0.4860503 0.10584091 -1.772312
v -0.7592438 -0.08367369 -2.2359996
v -0.7534417 0.06784607 -2.2375312
v -0.810258 0.044484477 -2.6922584
v -0.81192875 -0.06261696 -2.6915975
v -0.9124499 0.038609788 -2.7144384
v -0.91553974 -0.05985517 -2.713602
v -0.810258 0.044484477 -2.6922584
v -0.81192875 -0.06261696 -2.6915975
v -0.9803922 -0.03461495 0.025254164
v -0.9199512 -0.017630167 2.1751378
v -0.97298694 -0.034674253 2.1753042
v -0.92744803 -0.017601384 0.025161045
v -0.9803846 -6.4888987E-4 0.025251746
v -0.9729984 -6.013805E-4 2.175106
v -0.9704101 -0.03457092 -2.1540828
v -0.9175613 -0.017603135 -2.1541047
v -0.9704139 -6.8115606E-4 -2.153891
v -0.8148943 -0.01761465 2.4528794
v -0.8148943 -0.01761465 2.4528794
v -0.8718805 -0.016321724 -2.5818636
v -0.8718805 -0.016321724 -2.5818636
v -0.92744803 -0.017601384 0.025161045
v -0.9729984 -6.013805E-4 2.175106
v -0.9199512 -0.017630167 2.1751378
v -0.9803846 -6.4888987E-4 0.025251746
v -0.9175613 -0.017603135 -2.1541047
v -0.9704139 -6.8115606E-4 -2.153891
v -0.8148943 -0.01761465 2.4528794
v -0.8718805 -0.016321724 -2.5818636
vn -0.64705175 0.7624461 0.0
vn 0.750487 0.6590693 0.0489584
vn -0.65746003 0.7528065 0.032073632
vn 0.75815994 0.6520686 0.0
vn 0.7178139 -0.6947433 0.045551028
vn 0.7215618 -0.69235003 0.0
vn -0.7035203 -0.71004105 0.03001551
vn -0.691187 -0.722676 0.0
vn -0.65746003 0.7528065 0.032073632
vn -0.7035203 -0.71004105 0.03001551
vn -0.64705175 0.7624461 0.0
vn 0.057561707 0.90372777 -0.4242203
vn 0.16526876 0.9548989 -0.24668694
vn 0.20859917 0.96344084 -0.16813143
vn 0.0575617 0.90372777 -0.42422026
vn 0.35528415 0.930313 0.09105388
vn 0.35731727 0.9292752 0.093659095
vn 0.24408391 0.919062 0.30943194
vn 0.24055912 0.91898924 0.31239435
vn 0.0873141 0.944522 0.31662965
vn 0.09243378 0.95290095 0.28885248
vn 0.09231197 0.9895639 0.11064236
vn 0.09441005 0.98891395 0.11461228
vn 0.0695249 0.9952865 0.067609355
vn 0.09231197 0.9895639 0.11064236
vn 0.069524914 0.9952865 0.067609355
vn -0.9306994 0.019634215 0.36525753
vn -0.9801691 0.019006787 0.19724914
vn -0.98037416 0.01900129 0.196228
vn -0.9306994 0.019634217 0.36525753
vn -0.98395556 0.020607235 -0.17721982
vn -0.9843663 0.020589713 -0.17492615
vn -0.74559826 0.02120912 -0.6660582
vn -0.74587166 0.021211267 -0.66575193
vn -0.65424496 0.023858877 -0.7559063
vn -0.65992755 0.02403093 -0.75094485
vn -0.9767346 0.033099275 -0.21188171
vn -0.97814524 0.033130467 -0.20526609
vn -0.9804243 0.032247495 0.19423825
vn -0.9804243 0.032247495 0.19423825
vn 0.01648087 -0.89758426 -0.44053474
vn 0.15894566 -0.9692017 -0.18810748
vn 0.11745267 -0.95676935 -0.26607797
vn 0.016480869 -0.89758426 -0.44053468
vn 0.27628043 -0.9580455 0.07627633
vn 0.2752822 -0.95859045 0.07296483
vn 0.15324304 -0.95251346 0.26312503
vn 0.15923052 -0.95280105 0.2584877
vn 0.046999812 -0.9749985 0.21718414
vn 0.03981049 -0.96858853 0.24546178
vn 0.053646278 -0.9958615 0.07336174
vn 0.05149591 -0.99611413 0.0714473
vn 0.026272362 -0.99845445 0.048975322
vn 0.05149591 -0.99611413 0.0714473
vn 0.026272362 -0.99845445 0.048975326
vn 0.6631055 -0.010901938 -0.7484466
vn 0.9803191 -0.018510116 -0.19655031
vn 0.9788062 -0.018461278 -0.20395489
vn 0.6631054 -0.010901938 -0.74844664
vn 0.9282171 -0.020229694 0.37148857
vn 0.9284291 -0.020224221 0.37095845
vn 0.7267233 -0.018697673 0.6866757
vn 0.7275326 -0.018710138 0.685818
vn 0.68585867 -0.021410275 0.7274198
vn 0.68149346 -0.021265773 0.7315151
vn 0.96518785 -0.029281514 0.25991324
vn 0.9641484 -0.02926788 0.26374462
vn 0.99954295 -0.029116455 -0.008130787
vn 0.99954295 -0.029116454 -0.008130787
vn 0.20911005 -0.004106105 0.97788346
vn 0.20911005 -0.004106105 0.97788346
vn 0.20911005 -0.004106105 0.97788346
vn 0.20897512 -0.003960121 0.97791296
vn -0.64705175 0.7624461 0.0
vn 0.7504869 0.6590692 -0.04896028
vn 0.75815994 0.6520686 0.0
vn -0.6574592 0.7528072 -0.032074377
vn 0.7178144 -0.6947428 -0.0455507
vn 0.7215618 -0.69235003 0.0
vn -0.70352054 -0.71004087 -0.03001383
vn -0.691187 -0.722676 0.0
vn -0.6574592 0.7528072 -0.032074377
vn -0.64705175 0.7624461 0.0
vn -0.70352054 -0.71004087 -0.03001383
vn 0.057563342 0.9037287 0.42421788
vn 0.16526979 0.9548993 0.24668454
vn 0.057563342 0.9037287 0.42421785
vn 0.20859914 0.96344095 0.16813055
vn 0.35528356 0.9303131 -0.091055244
vn 0.35731658 0.9292753 -0.093660474
vn 0.24408372 0.9190615 -0.30943355
vn 0.24055843 0.9189887 -0.31239632
vn 0.084618725 0.94493717 -0.3161222
vn 0.08938948 0.9537306 -0.2870672
vn 0.08803124 0.9889915 -0.11893838
vn 0.08854956 0.98884577 -0.119762056
vn 0.065220095 0.99443734 -0.08270828
vn 0.06522009 0.99443734 -0.08270828
vn 0.08803124 0.9889915 -0.11893838
vn -0.93069977 0.019633833 -0.36525676
vn -0.98016924 0.019006532 -0.19724832
vn -0.93069977 0.019633831 -0.36525673
vn -0.9803744 0.019001037 -0.19622695
vn -0.9839553 0.020607896 0.1772209
vn -0.9843662 0.02059036 0.17492624
vn -0.7455976 0.021210682 0.66605884
vn -0.74587125 0.021212833 0.6657523
vn -0.6459764 0.023671206 0.7629902
vn -0.6514936 0.02384058 0.7582795
vn -0.9671716 0.032616425 0.25202253
vn -0.9690439 0.032652598 0.2447199
vn -0.9899478 0.032014396 -0.13776205
vn -0.9899478 0.032014392 -0.13776204
vn 0.016482132 -0.8975831 0.44053704
vn 0.15894641 -0.9692012 0.18810879
vn 0.016482132 -0.8975831 0.44053704
vn 0.117453724 -0.95676875 0.26607934
vn 0.27628082 -0.95804536 -0.07627522
vn 0.27528268 -0.95859045 -0.07296391
vn 0.1532429 -0.9525138 -0.26312384
vn 0.15923089 -0.95280135 -0.25848606
vn 0.04512389 -0.9754186 -0.21569036
vn 0.038060978 -0.9687436 -0.24512674
vn 0.04972413 -0.9958385 -0.07637525
vn 0.049304143 -0.99588275 -0.07606985
vn 0.023946935 -0.9980519 -0.057610523
vn 0.049304143 -0.99588275 -0.07606985
vn 0.023946937 -0.9980519 -0.05761052
vn 0.66310745 -0.010900789 0.7484449
vn 0.9803193 -0.018510172 0.19654842
vn 0.6631074 -0.010900789 0.7484449
vn 0.97880656 -0.018461322 0.20395344
vn 0.9282168 -0.020231254 -0.37148944
vn 0.9284287 -0.02022578 -0.37095967
vn 0.72672313 -0.01870014 -0.68667597
vn 0.7275318 -0.018712599 -0.68581885
vn 0.68585503 -0.021407403 -0.7274232
vn 0.68149364 -0.021263147 -0.731515
vn 0.947059 -0.029120596 -0.31973624
vn 0.94585305 -0.029098712 -0.323288
vn 0.9924143 -0.02968725 -0.11930044
vn 0.9924143 -0.02968725 -0.11930044
vn 0.21290347 -0.014979336 -0.97695845
vn 0.21290345 -0.0149793355 -0.97695845
vn 0.21290348 -0.014979337 -0.97695845
vn 0.2074983 -0.009273154 -0.97819144
vn 0.5904663 0.8070622 3.5546723E-4
vn -0.30515438 0.95017654 0.06360328
vn 0.62854064 0.75384563 -0.19145064
vn -0.30588275 0.95206916 -1.5423312E-4
vn 0.9999999 -1.153171E-5 5.69107E-4
vn 0.9676495 -0.0012844831 -0.25229478
vn 0.6133529 0.7849464 0.087506354
vn -0.3057203 0.95198596 -0.016054869
vn 0.9935342 -6.098149E-4 0.11353138
vn 0.25787356 0.94420147 -0.2049016
vn 0.25787356 0.94420147 -0.2049016
vn 0.2909842 0.95066047 0.10757695
vn 0.2909842 0.95066047 0.10757695
vn -0.30513746 -0.95230824 -1.621763E-4
vn -0.3051381 -0.9511477 0.046998616
vn -0.30491164 -0.9502422 0.06378554
vn -0.305138 -0.9523081 -1.5882477E-4
vn -0.30495337 -0.952178 -0.018988289
vn -0.30495864 -0.95221376 -0.017008262
vn -0.30368686 -0.9458154 0.11492361
vn -0.30486366 -0.95173764 -0.03540777
vt 0.4662056 0.0082883835
vt 0.4154735 0.089209676
vt 0.4662056 0.089209676
vt 0.4154735 0.0082883835
vt 0.36687416 0.089209676
vt 0.36687416 0.0082883835
vt 0.32530978 0.089209676
vt 0.32530978 0.0082883835
vt 0.27541426 0.089209676
vt 0.32530978 0.089209676
vt 0.27541426 0.0082883835
vt 0.4662056 0.089209676
vt 0.4154735 0.18976444
vt 0.4662056 0.18976444
vt 0.4154735 0.089209676
vt 0.4154735 0.30974543
vt 0.4662056 0.30974543
vt 0.4154735 0.4248494
vt 0.4662056 0.4248494
vt 0.4154735 0.6133833
vt 0.4662056 0.6133833
vt 0.4154735 0.791419
vt 0.4662056 0.791419
vt 0.4662056 0.8854424
vt 0.4154735 0.791419
vt 0.4154735 0.8854424
vt 0.32530978 0.089209676
vt 0.27541426 0.18976444
vt 0.32530978 0.18976444
vt 0.27541426 0.089209676
vt 0.27541426 0.30974543
vt 0.32530978 0.30974543
vt 0.27541426 0.4248494
vt 0.32530978 0.4248494
vt 0.27541426 0.6133833
vt 0.32530978 0.6133833
vt 0.27541426 0.791419
vt 0.32530978 0.791419
vt 0.32530978 0.8854424
vt 0.27541426 0.8854424
vt 0.36687416 0.089209676
vt 0.32530978 0.18976444
vt 0.36687416 0.18976444
vt 0.32530978 0.089209676
vt 0.32530978 0.30974543
vt 0.36687416 0.30974543
vt 0.32530978 0.4248494
vt 0.36687416 0.4248494
vt 0.32530978 0.6133833
vt 0.36687416 0.6133833
vt 0.32530978 0.791419
vt 0.36687416 0.791419
vt 0.32530978 0.8854424
vt 0.36687416 0.791419
vt 0.36687416 0.8854424
vt 0.4154735 0.089209676
vt 0.36687416 0.18976444
vt 0.4154735 0.18976444
vt 0.36687416 0.089209676
vt 0.36687416 0.30974543
vt 0.4154735 0.30974543
vt 0.36687416 0.4248494
vt 0.4154735 0.4248494
vt 0.36687416 0.6133833
vt 0.4154735 0.6133833
vt 0.36687416 0.791419
vt 0.4154735 0.791419
vt 0.4154735 0.8854424
vt 0.36687416 0.8854424
vt 0.4154735 0.97844374
vt 0.4154735 0.8854424
vt 0.36687416 0.97844374
vt 0.36687416 0.8854424
vt 0.26055586 0.0082883835
vt 0.20982377 0.089209676
vt 0.20982377 0.0082883835
vt 0.26055586 0.089209676
vt 0.16122444 0.089209676
vt 0.16122444 0.0082883835
vt 0.11966007 0.089209676
vt 0.11966007 0.0082883835
vt 0.06976454 0.089209676
vt 0.06976454 0.0082883835
vt 0.11966007 0.089209676
vt 0.26055586 0.089209676
vt 0.20982377 0.18976444
vt 0.20982377 0.089209676
vt 0.26055586 0.18976444
vt 0.20982377 0.30974543
vt 0.26055586 0.30974543
vt 0.20982377 0.4248494
vt 0.26055586 0.4248494
vt 0.20982377 0.6133833
vt 0.26055586 0.6133833
vt 0.20982377 0.791419
vt 0.26055586 0.791419
vt 0.26055586 0.8854424
vt 0.20982377 0.8854424
vt 0.20982377 0.791419
vt 0.11966007 0.089209676
vt 0.06976454 0.18976444
vt 0.06976454 0.089209676
vt 0.11966007 0.18976444
vt 0.06976454 0.30974543
vt 0.11966007 0.30974543
vt 0.06976454 0.4248494
vt 0.11966007 0.4248494
vt 0.06976454 0.6133833
vt 0.11966007 0.6133833
vt 0.06976454 0.791419
vt 0.11966007 0.791419
vt 0.11966007 0.8854424
vt 0.06976454 0.8854424
vt 0.16122444 0.089209676
vt 0.11966007 0.18976444
vt 0.11966007 0.089209676
vt 0.16122444 0.18976444
vt 0.11966007 0.30974543
vt 0.16122444 0.30974543
vt 0.11966007 0.4248494
vt 0.16122444 0.4248494
vt 0.11966007 0.6133833
vt 0.16122444 0.6133833
vt 0.11966007 0.791419
vt 0.16122444 0.791419
vt 0.11966007 0.8854424
vt 0.16122444 0.791419
vt 0.16122444 0.8854424
vt 0.20982377 0.089209676
vt 0.16122444 0.18976444
vt 0.16122444 0.089209676
vt 0.20982377 0.18976444
vt 0.16122444 0.30974543
vt 0.20982377 0.30974543
vt 0.16122444 0.4248494
vt 0.20982377 0.4248494
vt 0.16122444 0.6133833
vt 0.20982377 0.6133833
vt 0.16122444 0.791419
vt 0.20982377 0.791419
vt 0.20982377 0.8854424
vt 0.16122444 0.8854424
vt 0.20982377 0.97844374
vt 0.16122444 0.97844374
vt 0.20982377 0.8854424
vt 0.16122444 0.8854424
vt 0.035032094 0.5059315
vt 0.026317537 0.92787683
vt 0.035091937 0.927796
vt 0.026280701 0.5060259
vt 0.01777792 0.5059304
vt 0.017796338 0.9277581
vt 0.034999907 0.07761294
vt 0.026280701 0.07772076
vt 0.017805517 0.0776487
vt 0.026082754 0.98058814
vt 0.026082754 0.98058814
vt 0.02594924 0.01825279
vt 0.02594924 0.01825279
vt 0.026280701 0.5060259
vt 0.017796338 0.9277581
vt 0.026317537 0.92787683
vt 0.01777792 0.5059304
vt 0.026280701 0.07772076
vt 0.017805517 0.0776487
vt 0.026082754 0.98058814
vt 0.02594924 0.01825279

g W_bow_02
s 1
usemtl W_bow_02
f 3/3/3 2/2/2 1/1/1 
f 2/2/2 4/4/4 1/1/1 
f 2/2/2 5/5/5 4/4/4 
f 5/5/5 6/6/6 4/4/4 
f 5/5/5 7/7/7 6/6/6 
f 7/7/7 8/8/8 6/6/6 
f 10/10/10 9/9/9 8/8/8 
f 9/9/9 11/11/11 8/8/8 
f 14/14/14 13/13/13 12/12/12 
f 13/13/13 15/15/15 12/12/12 
f 16/16/16 13/13/13 14/14/14 
f 17/17/17 16/16/16 14/14/14 
f 18/18/18 16/16/16 17/17/17 
f 19/19/19 18/18/18 17/17/17 
f 20/20/20 18/18/18 19/19/19 
f 21/21/21 20/20/20 19/19/19 
f 22/22/22 20/20/20 21/21/21 
f 23/23/23 22/22/22 21/21/21 
f 22/22/22 23/23/23 24/24/24 
f 26/26/26 25/25/25 24/24/24 
f 29/29/29 28/28/28 27/27/27 
f 28/28/28 30/30/30 27/27/27 
f 31/31/31 28/28/28 29/29/29 
f 32/32/32 31/31/31 29/29/29 
f 33/33/33 31/31/31 32/32/32 
f 34/34/34 33/33/33 32/32/32 
f 35/35/35 33/33/33 34/34/34 
f 36/36/36 35/35/35 34/34/34 
f 37/37/37 35/35/35 36/36/36 
f 38/38/38 37/37/37 36/36/36 
f 37/37/37 38/38/38 39/39/39 
f 40/40/40 37/37/37 39/39/39 
f 43/43/43 42/42/42 41/41/41 
f 42/42/42 44/44/44 41/41/41 
f 45/45/45 42/42/42 43/43/43 
f 46/46/46 45/45/45 43/43/43 
f 47/47/47 45/45/45 46/46/46 
f 48/48/48 47/47/47 46/46/46 
f 49/49/49 47/47/47 48/48/48 
f 50/50/50 49/49/49 48/48/48 
f 51/51/51 49/49/49 50/50/50 
f 52/52/52 51/51/51 50/50/50 
f 53/53/53 51/51/51 52/52/52 
f 55/55/55 53/53/53 54/54/54 
f 58/58/58 57/57/57 56/56/56 
f 57/57/57 59/59/59 56/56/56 
f 60/60/60 57/57/57 58/58/58 
f 61/61/61 60/60/60 58/58/58 
f 62/62/62 60/60/60 61/61/61 
f 63/63/63 62/62/62 61/61/61 
f 64/64/64 62/62/62 63/63/63 
f 65/65/65 64/64/64 63/63/63 
f 66/66/66 64/64/64 65/65/65 
f 67/67/67 66/66/66 65/65/65 
f 66/66/66 67/67/67 68/68/68 
f 69/69/69 66/66/66 68/68/68 
f 72/72/72 71/71/71 70/70/70 
f 73/73/73 71/71/71 72/72/72 
f 76/76/76 75/75/75 74/74/74 
f 75/75/75 77/77/77 74/74/74 
f 78/78/78 75/75/75 76/76/76 
f 79/79/79 78/78/78 76/76/76 
f 80/80/80 78/78/78 79/79/79 
f 81/81/81 80/80/80 79/79/79 
f 83/83/83 82/82/82 81/81/81 
f 82/82/82 84/84/84 81/81/81 
f 87/87/87 86/86/86 85/85/85 
f 86/86/86 88/88/88 85/85/85 
f 86/86/86 89/89/89 88/88/88 
f 89/89/89 90/90/90 88/88/88 
f 89/89/89 91/91/91 90/90/90 
f 91/91/91 92/92/92 90/90/90 
f 91/91/91 93/93/93 92/92/92 
f 93/93/93 94/94/94 92/92/92 
f 93/93/93 95/95/95 94/94/94 
f 95/95/95 96/96/96 94/94/94 
f 96/96/96 95/95/95 97/97/97 
f 99/99/99 98/98/98 97/97/97 
f 102/102/102 101/101/101 100/100/100 
f 101/101/101 103/103/103 100/100/100 
f 101/101/101 104/104/104 103/103/103 
f 104/104/104 105/105/105 103/103/103 
f 104/104/104 106/106/106 105/105/105 
f 106/106/106 107/107/107 105/105/105 
f 106/106/106 108/108/108 107/107/107 
f 108/108/108 109/109/109 107/107/107 
f 108/108/108 110/110/110 109/109/109 
f 110/110/110 111/111/111 109/109/109 
f 111/111/111 110/110/110 112/112/112 
f 110/110/110 113/113/113 112/112/112 
f 116/116/116 115/115/115 114/114/114 
f 115/115/115 117/117/117 114/114/114 
f 115/115/115 118/118/118 117/117/117 
f 118/118/118 119/119/119 117/117/117 
f 118/118/118 120/120/120 119/119/119 
f 120/120/120 121/121/121 119/119/119 
f 120/120/120 122/122/122 121/121/121 
f 122/122/122 123/123/123 121/121/121 
f 122/122/122 124/124/124 123/123/123 
f 124/124/124 125/125/125 123/123/123 
f 124/124/124 126/126/126 125/125/125 
f 126/126/126 128/128/128 127/127/127 
f 131/131/131 130/130/130 129/129/129 
f 130/130/130 132/132/132 129/129/129 
f 130/130/130 133/133/133 132/132/132 
f 133/133/133 134/134/134 132/132/132 
f 133/133/133 135/135/135 134/134/134 
f 135/135/135 136/136/136 134/134/134 
f 135/135/135 137/137/137 136/136/136 
f 137/137/137 138/138/138 136/136/136 
f 137/137/137 139/139/139 138/138/138 
f 139/139/139 140/140/140 138/138/138 
f 140/140/140 139/139/139 141/141/141 
f 139/139/139 142/142/142 141/141/141 
f 145/145/145 144/144/144 143/143/143 
f 145/145/145 146/146/146 144/144/144 
f 149/149/149 148/148/148 147/147/147 
f 148/148/148 150/150/150 147/147/147 
f 149/149/149 147/147/147 151/151/151 
f 152/152/152 149/149/149 151/151/151 
f 147/147/147 150/150/150 153/153/153 
f 150/150/150 154/154/154 153/153/153 
f 151/151/151 147/147/147 155/155/155 
f 147/147/147 153/153/153 155/155/155 
f 149/149/149 156/156/156 148/148/148 
f 152/152/152 157/157/157 149/149/149 
f 154/154/154 158/158/158 153/153/153 
f 153/153/153 159/159/159 155/155/155 
f 162/162/162 161/161/161 160/160/160 
f 161/161/161 163/163/163 160/160/160 
f 160/160/160 163/163/163 164/164/164 
f 163/163/163 165/165/165 164/164/164 
f 162/162/162 166/166/166 161/161/161 
f 165/165/165 167/167/167 164/164/164 

