# Created by DisUnity v0.3.4
v -0.081667356 -0.17808114 -0.69375575
v 0.06511069 -0.11658712 -0.22153783
v 0.10900988 -0.16139896 -0.69375575
v -0.049321964 -0.1285014 -0.22153783
v 0.11365673 0.007305534 -0.22153783
v 0.18990129 0.012073422 -0.69375575
v -0.19145314 -0.021290902 -0.69375575
v -0.115208596 -0.016523011 -0.22153783
v -0.11056176 0.15218145 -0.69375575
v -0.06666259 0.10736962 -0.22153783
v 0.0801155 0.16886362 -0.69375575
v 0.047770105 0.11928393 -0.22153783
v 0.18990129 0.012073422 -0.69375575
v 0.11365673 0.007305534 -0.22153783
v 0.08113718 -0.12173538 1.4976282
v -0.061267212 -0.13419423 1.4976283
v 0.1415497 0.007819804 1.4976282
v 0.059557837 0.124916166 1.4976283
v 0.1415497 0.007819804 1.4976282
v -0.08284654 0.11245735 1.4976283
v -0.14325905 -0.01709782 1.4976283
v 0.12080073 -0.17838076 1.6431795
v -0.09049179 -0.19686654 1.6431795
v 0.21043783 0.01384677 1.6431795
v 0.08878243 0.18758859 1.6431795
v 0.21043783 0.01384677 1.6431795
v -0.122510105 0.16910271 1.6431797
v -0.2121472 -0.0231248 1.6431797
v 0.10538301 -0.15636198 1.7991135
v -0.07913183 -0.17250504 1.7991135
v 0.18366013 0.011504001 1.7991135
v 0.07742247 0.16322696 1.7991135
v 0.18366013 0.011504001 1.7991135
v -0.10709238 0.14708391 1.7991135
v -0.18536948 -0.020782053 1.7991135
v 0.15242593 -0.22369114 2.058705
v -0.11410265 -0.24700943 2.058705
v 0.26549596 0.018788565 2.058705
v 0.112037435 0.23794988 2.058705
v 0.26549596 0.018788565 2.058705
v -0.1544911 0.21463145 2.058705
v -0.2675611 -0.027848154 2.058705
v 0.1910285 -0.27882114 2.8510418
v -0.14254539 -0.30800515 2.8510418
v 0.33254117 0.02465431 2.8510418
v 0.14048018 0.29894564 2.8510418
v 0.33254117 0.02465431 2.8510418
v -0.19309361 0.26976147 2.8510418
v -0.3346063 -0.0337139 2.8510418
v 0.116877675 -0.17292291 3.038496
v -0.08791021 -0.19083962 3.038496
v 0.20375523 0.013386939 3.038496
v 0.08584504 0.18178004 3.038496
v 0.20375523 0.013386939 3.038496
v -0.1189428 0.16386324 3.038496
v -0.20582037 -0.02244652 3.038496
v 0.10900988 -0.16139896 -0.69375575
v 0.18990129 0.012073422 -0.69375575
v 0.0801155 0.16886362 -0.69375575
v -0.081667356 -0.17808114 -0.69375575
v -0.11056176 0.15218145 -0.69375575
v -0.19145314 -0.021290902 -0.69375575
v 0.08584504 0.18178004 3.038496
v 0.20375523 0.013386939 3.038496
v 0.116877675 -0.17292291 3.038496
v -0.08791021 -0.19083962 3.038496
v -0.1189428 0.16386324 3.038496
v -0.20582037 -0.02244652 3.038496
v 0.17719358 -0.2054575 2.5331006
v 0.64449584 -0.3128623 2.643634
v 0.26184258 -0.023926921 2.5331006
v 0.17719361 -0.20545752 2.7541685
v 0.26184258 -0.023926921 2.7541685
v 0.64449584 -0.3128623 2.643634
v 0.17719358 -0.2054575 2.5331006
v 0.17719361 -0.20545752 2.7541685
v 0.64449584 -0.3128623 2.643634
v 0.64449584 -0.3128623 2.643634
v 0.26184258 -0.023926921 2.7541685
v 0.26184258 -0.023926921 2.5331006
v 0.16913493 -0.19595969 2.161107
v 0.6067966 -0.29655182 2.2646294
v 0.2484148 -0.025943391 2.161107
v 0.16913496 -0.1959597 2.3681524
v 0.2484148 -0.025943391 2.3681524
v 0.6067966 -0.29655182 2.2646294
v 0.16913493 -0.19595969 2.161107
v 0.16913496 -0.1959597 2.3681524
v 0.6067966 -0.29655182 2.2646294
v 0.6067966 -0.29655182 2.2646294
v 0.2484148 -0.025943391 2.3681524
v 0.2484148 -0.025943391 2.161107
v 0.26141062 0.06050649 2.5331006
v 0.5880771 0.41149983 2.6436343
v 0.14652498 0.22458 2.5331001
v 0.26141062 0.060506497 2.7541685
v 0.14652498 0.22457998 2.7541685
v 0.5880771 0.41149983 2.6436343
v 0.26141062 0.06050649 2.5331006
v 0.26141062 0.060506497 2.7541685
v 0.5880771 0.41149983 2.6436343
v 0.5880771 0.41149983 2.6436343
v 0.14652498 0.22457998 2.7541685
v 0.14652498 0.22458 2.5331001
v 0.24511869 0.05714417 2.161107
v 0.55106515 0.3858744 2.2646294
v 0.13752021 0.21081065 2.161107
v 0.24511869 0.057144154 2.368152
v 0.13752024 0.21081063 2.368152
v 0.55106515 0.3858744 2.2646294
v 0.24511869 0.05714417 2.161107
v 0.24511869 0.057144154 2.368152
v 0.55106515 0.3858744 2.2646294
v 0.55106515 0.3858744 2.2646294
v 0.13752024 0.21081063 2.368152
v 0.13752021 0.21081065 2.161107
v 0.080005616 0.25276798 2.5331001
v -0.06063022 0.71116626 2.6436346
v -0.11952911 0.235311 2.5331001
v 0.080005616 0.25276804 2.754169
v -0.11952911 0.23531097 2.7541687
v -0.06063022 0.71116626 2.6436346
v 0.080005616 0.25276798 2.5331001
v 0.080005616 0.25276804 2.754169
v -0.06063022 0.71116626 2.6436346
v -0.06063022 0.71116626 2.6436346
v -0.11952911 0.23531097 2.7541687
v -0.11952911 0.235311 2.5331001
v 0.07402782 0.23681857 2.161107
v -0.05768758 0.6661411 2.2646294
v -0.11285061 0.2204687 2.1611066
v 0.07402782 0.23681855 2.3681524
v -0.11285059 0.22046869 2.3681524
v -0.05768758 0.6661411 2.2646294
v 0.07402782 0.23681857 2.161107
v 0.07402782 0.23681855 2.3681524
v -0.05768758 0.6661411 2.2646294
v -0.05768758 0.6661411 2.2646294
v -0.11285059 0.22046869 2.3681524
v -0.11285061 0.2204687 2.1611066
v -0.17719293 0.18383153 2.5330997
v -0.64449555 0.29123646 2.643634
v -0.26184198 0.002300872 2.5330997
v -0.17719291 0.1838315 2.754168
v -0.261842 0.002300872 2.754168
v -0.64449555 0.29123646 2.643634
v -0.17719293 0.18383153 2.5330997
v -0.17719291 0.1838315 2.754168
v -0.64449555 0.29123646 2.643634
v -0.64449555 0.29123646 2.643634
v -0.261842 0.002300872 2.754168
v -0.26184198 0.002300872 2.5330997
v -0.16641116 0.172447 2.1611066
v -0.6040733 0.2730393 2.2646286
v -0.24569103 0.0024306676 2.1611066
v -0.16641119 0.17244698 2.3681517
v -0.24569103 0.0024306676 2.3681517
v -0.6040733 0.2730393 2.2646286
v -0.16641116 0.172447 2.1611066
v -0.16641119 0.17244698 2.3681517
v -0.6040733 0.2730393 2.2646286
v -0.6040733 0.2730393 2.2646286
v -0.24569103 0.0024306676 2.3681517
v -0.24569103 0.0024306676 2.1611066
v -0.25020167 -0.079489976 2.5330997
v -0.57127005 -0.42637253 2.6317592
v -0.135316 -0.24356353 2.5330997
v -0.25020167 -0.079489976 2.754168
v -0.13531601 -0.24356353 2.754168
v -0.57127005 -0.42637253 2.6317592
v -0.25020167 -0.079489976 2.5330997
v -0.25020167 -0.079489976 2.754168
v -0.57127005 -0.42637253 2.6317592
v -0.57127005 -0.42637253 2.6317592
v -0.13531601 -0.24356353 2.754168
v -0.135316 -0.24356353 2.5330997
v -0.23488896 -0.07438633 2.1611066
v -0.5408354 -0.4031166 2.2646286
v -0.12729031 -0.22805284 2.1611066
v -0.23488896 -0.074386336 2.3681517
v -0.12729031 -0.22805285 2.3681517
v -0.5408354 -0.4031166 2.2646286
v -0.23488896 -0.07438633 2.1611066
v -0.23488896 -0.074386336 2.3681517
v -0.5408354 -0.4031166 2.2646286
v -0.5408354 -0.4031166 2.2646286
v -0.12729031 -0.22805285 2.3681517
v -0.12729031 -0.22805284 2.1611066
v -0.07553161 -0.2527678 2.5330997
v 0.06510444 -0.71116626 2.643634
v 0.1240032 -0.23531069 2.5330997
v -0.07553161 -0.25276774 2.754168
v 0.12400319 -0.23531072 2.754168
v 0.06510444 -0.71116626 2.643634
v -0.07553161 -0.2527678 2.5330997
v -0.07553161 -0.25276774 2.754168
v 0.06510444 -0.71116626 2.643634
v 0.06510444 -0.71116626 2.643634
v 0.12400319 -0.23531072 2.754168
v 0.1240032 -0.23531069 2.5330997
v -0.07129803 -0.23667337 2.1627383
v 0.060417686 -0.6659959 2.2662613
v 0.1155805 -0.22032352 2.1627383
v -0.07129803 -0.23667338 2.3697839
v 0.1155805 -0.22032353 2.3697839
v 0.060417686 -0.6659959 2.2662613
v -0.07129803 -0.23667337 2.1627383
v -0.07129803 -0.23667338 2.3697839
v 0.060417686 -0.6659959 2.2662613
v 0.060417686 -0.6659959 2.2662613
v 0.1155805 -0.22032353 2.3697839
v 0.1155805 -0.22032352 2.1627383
vn -0.3625833 -0.7422742 -0.56352675
vn 0.5832451 -0.8097324 0.064488105
vn 0.48988494 -0.6675934 -0.5606529
vn -0.4313239 -0.8999509 0.063625164
vn 0.99407417 0.08425524 0.068686195
vn 0.8330916 0.069424 -0.5487609
vn -0.8330916 -0.06942404 -0.54876095
vn -0.9940777 -0.08425137 0.06863904
vn -0.48988497 0.66759336 -0.56065285
vn -0.5832335 0.8097417 0.06447554
vn 0.36258325 0.7422742 -0.5635268
vn 0.43133238 0.89994425 0.06366086
vn 0.8330916 0.069424 -0.5487609
vn 0.99407417 0.08425524 0.068686195
vn 0.5645428 -0.7892261 -0.24168871
vn -0.4171765 -0.8760252 -0.24195798
vn 0.9669909 0.08269775 -0.24101828
vn 0.41717055 0.8760375 -0.24192385
vn 0.9669909 0.08269775 -0.24101828
vn -0.56455296 0.78921515 -0.24170129
vn -0.96697927 -0.082700476 -0.24106388
vn 0.5691071 -0.81276864 -0.12459581
vn -0.4193247 -0.8992456 -0.12459595
vn 0.9884319 0.08647698 -0.124595836
vn 0.41932446 0.8992457 -0.124595836
vn 0.9884319 0.08647698 -0.124595836
vn -0.5691073 0.81276864 -0.12459566
vn -0.9884319 -0.08647697 -0.124595754
vn 0.57207036 -0.8169013 -0.07353708
vn -0.4213349 -0.90389234 -0.07386229
vn 0.9935015 0.08683511 -0.073583156
vn 0.42158914 0.9037662 -0.07395443
vn 0.9935015 0.08683511 -0.073583156
vn -0.5719457 0.8169214 -0.074279666
vn -0.99343866 -0.08700036 -0.07423358
vn 0.5633244 -0.80457705 -0.18793969
vn -0.41515297 -0.89007187 -0.18820249
vn 0.9784309 0.08565985 -0.18797703
vn 0.41497272 0.89014006 -0.18827702
vn 0.9784309 0.08565985 -0.18797703
vn -0.56332153 0.8044387 -0.18853939
vn -0.9783407 -0.085536376 -0.18850216
vn 0.557741 -0.79653585 0.2333575
vn -0.41094995 -0.8812856 0.2333574
vn 0.96869075 0.08474996 0.23335747
vn 0.4109497 0.8812857 0.23335749
vn 0.96869075 0.08474996 0.23335747
vn -0.5577411 0.79653573 0.23335746
vn -0.96869075 -0.084749855 0.23335749
vn 0.32602763 -0.4656152 0.8227445
vn -0.24022087 -0.5151558 0.82274437
vn 0.5662484 0.049540643 0.8227445
vn 0.24022079 0.51515585 0.8227445
vn 0.5662484 0.049540643 0.8227445
vn -0.32602775 0.46561515 0.8227445
vn -0.5662485 -0.049540494 0.8227445
vn 0.48988494 -0.6675934 -0.5606529
vn 0.8330916 0.069424 -0.5487609
vn 0.36258325 0.7422742 -0.5635268
vn -0.3625833 -0.7422742 -0.56352675
vn -0.48988497 0.66759336 -0.56065285
vn -0.8330916 -0.06942404 -0.54876095
vn 0.24022079 0.51515585 0.8227445
vn 0.5662484 0.049540643 0.8227445
vn 0.32602763 -0.4656152 0.8227445
vn -0.24022087 -0.5151558 0.82274437
vn -0.32602775 0.46561515 0.8227445
vn -0.5662485 -0.049540494 0.8227445
vn -0.008714683 -0.7353202 -0.6776638
vn 0.9063085 -0.42261684 0.0
vn 0.5576857 0.47933114 -0.6776638
vn -0.008713274 -0.73532027 0.6776638
vn 0.5576867 0.47933012 0.6776638
vn 0.9063085 -0.42261684 0.0
vn -0.008714683 -0.7353202 -0.6776638
vn -0.008713274 -0.73532027 0.6776638
vn 0.9063085 -0.42261684 0.0
vn 0.9063085 -0.42261684 0.0
vn 0.5576867 0.47933012 0.6776638
vn 0.5576857 0.47933114 -0.6776638
vn -0.008714821 -0.7353203 -0.6776637
vn 0.9063082 -0.42261755 0.0
vn 0.55768555 0.47933117 -0.6776639
vn -0.008713684 -0.7353203 0.6776637
vn 0.5576863 0.47933036 0.67766386
vn 0.9063082 -0.42261755 0.0
vn -0.008714821 -0.7353203 -0.6776637
vn -0.008713684 -0.7353203 0.6776637
vn 0.9063082 -0.42261755 0.0
vn 0.9063082 -0.42261755 0.0
vn 0.5576863 0.47933036 0.67766386
vn 0.55768555 0.47933117 -0.6776639
vn 0.6324492 -0.37520763 -0.677663
vn 0.8191517 0.573577 0.0
vn -0.13626873 0.72263527 -0.67766446
vn 0.63244915 -0.37520632 0.6776638
vn -0.13626915 0.72263575 0.6776638
vn 0.8191517 0.573577 0.0
vn 0.6324492 -0.37520763 -0.677663
vn 0.63244915 -0.37520632 0.6776638
vn 0.8191517 0.573577 0.0
vn 0.8191517 0.573577 0.0
vn -0.13626915 0.72263575 0.6776638
vn -0.13626873 0.72263527 -0.67766446
vn 0.6324485 -0.37520763 -0.6776637
vn 0.81915206 0.5735764 0.0
vn -0.13627043 0.7226355 -0.6776639
vn 0.6324488 -0.37520736 0.6776637
vn -0.13627005 0.72263545 0.67766404
vn 0.81915206 0.5735764 0.0
vn 0.6324485 -0.37520763 -0.6776637
vn 0.6324488 -0.37520736 0.6776637
vn 0.81915206 0.5735764 0.0
vn 0.81915206 0.5735764 0.0
vn -0.13627005 0.72263545 0.67766404
vn -0.13627043 0.7226355 -0.6776639
vn 0.64116275 0.36011404 -0.67766374
vn -0.08715579 0.9961947 0.0
vn -0.6939552 0.2433059 -0.677664
vn 0.6411625 0.36011407 0.67766404
vn -0.6939557 0.2433055 0.67766356
vn -0.08715579 0.9961947 0.0
vn 0.64116275 0.36011404 -0.67766374
vn 0.6411625 0.36011407 0.67766404
vn -0.08715579 0.9961947 0.0
vn -0.08715579 0.9961947 0.0
vn -0.6939557 0.2433055 0.67766356
vn -0.6939552 0.2433059 -0.677664
vn 0.6411643 0.36011258 -0.6776631
vn -0.08715572 0.9961947 0.0
vn -0.69395506 0.24330507 -0.6776644
vn 0.6411629 0.36011353 0.677664
vn -0.6939556 0.24330534 0.6776638
vn -0.08715572 0.9961947 0.0
vn 0.6411643 0.36011258 -0.6776631
vn 0.6411629 0.36011353 0.677664
vn -0.08715572 0.9961947 0.0
vn -0.08715572 0.9961947 0.0
vn -0.6939556 0.24330534 0.6776638
vn -0.69395506 0.24330507 -0.6776644
vn 0.008713517 0.7353202 -0.6776638
vn -0.90630853 0.42261666 0.0
vn -0.5576865 -0.47933006 -0.6776639
vn 0.008714246 0.73532027 0.6776638
vn -0.55768615 -0.47933063 0.67766386
vn -0.90630853 0.42261666 0.0
vn 0.008713517 0.7353202 -0.6776638
vn 0.008714246 0.73532027 0.6776638
vn -0.90630853 0.42261666 0.0
vn -0.90630853 0.42261666 0.0
vn -0.55768615 -0.47933063 0.67766386
vn -0.5576865 -0.47933006 -0.6776639
vn 0.008715503 0.7353203 -0.6776636
vn -0.90630776 0.4226182 0.0
vn -0.5576852 -0.47933173 -0.6776639
vn 0.0087140165 0.73532027 0.6776638
vn -0.5576861 -0.47933063 0.6776639
vn -0.90630776 0.4226182 0.0
vn 0.008715503 0.7353203 -0.6776636
vn 0.0087140165 0.73532027 0.6776638
vn -0.90630776 0.4226182 0.0
vn -0.90630776 0.4226182 0.0
vn -0.5576861 -0.47933063 0.6776639
vn -0.5576852 -0.47933173 -0.6776639
vn -0.62662774 0.3877223 -0.6760245
vn -0.8191012 -0.57315165 -0.023882778
vn 0.1496924 -0.7217085 -0.6758173
vn -0.6434848 0.35657945 0.67733186
vn 0.11467896 -0.72688085 0.677121
vn -0.8191012 -0.57315165 -0.023882778
vn -0.62662774 0.3877223 -0.6760245
vn -0.6434848 0.35657945 0.67733186
vn -0.8191012 -0.57315165 -0.023882778
vn -0.8191012 -0.57315165 -0.023882778
vn 0.11467896 -0.72688085 0.677121
vn 0.1496924 -0.7217085 -0.6758173
vn -0.6324484 0.37520775 -0.6776638
vn -0.8191525 -0.57357585 0.0
vn 0.1362709 -0.72263557 -0.67766374
vn -0.6324491 0.37520647 0.67766386
vn 0.13626944 -0.7226358 0.6776637
vn -0.8191525 -0.57357585 0.0
vn -0.6324484 0.37520775 -0.6776638
vn -0.6324491 0.37520647 0.67766386
vn -0.8191525 -0.57357585 0.0
vn -0.8191525 -0.57357585 0.0
vn 0.13626944 -0.7226358 0.6776637
vn 0.1362709 -0.72263557 -0.67766374
vn -0.64116293 -0.36011416 -0.6776636
vn 0.08715621 -0.9961947 0.0
vn 0.6939553 -0.24330553 -0.677664
vn -0.64116323 -0.36011353 0.6776637
vn 0.6939555 -0.24330491 0.677664
vn 0.08715621 -0.9961947 0.0
vn -0.64116293 -0.36011416 -0.6776636
vn -0.64116323 -0.36011353 0.6776637
vn 0.08715621 -0.9961947 0.0
vn 0.08715621 -0.9961947 0.0
vn 0.6939555 -0.24330491 0.677664
vn 0.6939553 -0.24330553 -0.677664
vn -0.6411629 -0.3601139 -0.6776637
vn 0.087157264 -0.9961946 0.0
vn 0.6939556 -0.24330506 -0.67766386
vn -0.64116335 -0.36011332 0.6776636
vn 0.6939559 -0.24330437 0.67766386
vn 0.087157264 -0.9961946 0.0
vn -0.6411629 -0.3601139 -0.6776637
vn -0.64116335 -0.36011332 0.6776636
vn 0.087157264 -0.9961946 0.0
vn 0.087157264 -0.9961946 0.0
vn 0.6939559 -0.24330437 0.67766386
vn 0.6939556 -0.24330506 -0.67766386
vt 0.2598347 0.81364113
vt 0.31788093 0.7584479
vt 0.31980175 0.8127105
vt 0.2664644 0.7581829
vt 0.37816453 0.758832
vt 0.37709156 0.8126272
vt 0.19625245 0.8140396
vt 0.20062624 0.7578939
vt 0.13203517 0.81363964
vt 0.12864798 0.75807625
vt 0.068341725 0.81280124
vt 0.07316758 0.7583389
vt 0.0068211886 0.8123402
vt 0.01243682 0.75854397
vt 0.31971028 0.3594166
vt 0.25983334 0.35941464
vt 0.37204814 0.35941958
vt 0.06655264 0.35941583
vt 0.013155357 0.3594184
vt 0.1305399 0.35941428
vt 0.19585985 0.35941368
vt 0.31970358 0.3301463
vt 0.2598257 0.32941014
vt 0.3722795 0.33153498
vt 0.066600606 0.3298871
vt 0.01327476 0.33117086
vt 0.1306381 0.32927513
vt 0.19584136 0.32910717
vt 0.31977153 0.30263525
vt 0.25986445 0.30213547
vt 0.3724032 0.3034308
vt 0.06630215 0.30247706
vt 0.013192988 0.30321628
vt 0.13052331 0.30205297
vt 0.19537458 0.3019352
vt 0.3197539 0.24481398
vt 0.2598582 0.24467582
vt 0.37300637 0.2450459
vt 0.066669315 0.2447744
vt 0.013306637 0.24499023
vt 0.13084902 0.24465519
vt 0.19500156 0.24462223
vt 0.31973016 0.061038733
vt 0.25985914 0.0611102
vt 0.37390283 0.06093532
vt 0.0669612 0.061057806
vt 0.013531956 0.06096357
vt 0.13095322 0.061120093
vt 0.19483145 0.061137438
vt 0.31984222 0.010142744
vt 0.25991714 0.009579718
vt 0.37390432 0.010702252
vt 0.06594233 0.009983361
vt 0.013524278 0.010482907
vt 0.13021964 0.0094947815
vt 0.19494273 0.009346843
vt 0.41753623 0.11090237
vt 0.4704185 0.1029014
vt 0.4964991 0.15714574
vt 0.38359964 0.16061085
vt 0.47698694 0.20694357
vt 0.41696975 0.2024079
vt 0.39271203 0.05787635
vt 0.41865477 0.0149354935
vt 0.46881405 0.015932143
vt 0.49303055 0.059869647
vt 0.41692856 0.10181385
vt 0.46708778 0.1028105
vt 0.0961568 0.8996838
vt 0.045676395 0.8254788
vt 0.07331533 0.8996917
vt 0.02070308 0.8996902
vt 0.04573483 0.8996937
vt 0.045676395 0.8254788
vt 0.0022877199 0.8996844
vt 0.02070308 0.8996902
vt 0.045676395 0.8254788
vt 0.045676395 0.8254788
vt 0.04573483 0.8996937
vt 0.07331533 0.8996917
vt 0.19517507 0.9854754
vt 0.14469466 0.9109931
vt 0.17233358 0.985935
vt 0.11972134 0.9858467
vt 0.1447531 0.98605037
vt 0.14469466 0.9109931
vt 0.101305984 0.98551583
vt 0.11972134 0.9858467
vt 0.14469466 0.9109931
vt 0.14469466 0.9109931
vt 0.1447531 0.98605037
vt 0.17233358 0.985935
vt 0.29337573 0.9854427
vt 0.2428953 0.90967435
vt 0.27053425 0.9859023
vt 0.21792199 0.985814
vt 0.24295375 0.9860177
vt 0.2428953 0.90967435
vt 0.19950663 0.98548317
vt 0.21792199 0.985814
vt 0.2428953 0.90967435
vt 0.2428953 0.90967435
vt 0.24295375 0.9860177
vt 0.27053425 0.9859023
vt 0.39512378 0.98542017
vt 0.34464338 0.90876436
vt 0.37228233 0.9858797
vt 0.31967005 0.98579144
vt 0.34470183 0.9859951
vt 0.34464338 0.90876436
vt 0.3012547 0.9854606
vt 0.31967005 0.98579144
vt 0.34464338 0.90876436
vt 0.34464338 0.90876436
vt 0.34470183 0.9859951
vt 0.37228233 0.9858797
vt 0.19592014 0.899683
vt 0.14543974 0.8236985
vt 0.17307869 0.899691
vt 0.120466426 0.89968944
vt 0.14549819 0.89969295
vt 0.14543974 0.8236985
vt 0.10205107 0.8996837
vt 0.120466426 0.89968944
vt 0.14543974 0.8236985
vt 0.14543974 0.8236985
vt 0.14549819 0.89969295
vt 0.17307869 0.899691
vt 0.29594725 0.8996828
vt 0.24546683 0.82323694
vt 0.27310577 0.89969075
vt 0.22049353 0.8996892
vt 0.24552527 0.8996928
vt 0.24546683 0.82323694
vt 0.20207816 0.8996835
vt 0.22049353 0.8996892
vt 0.24546683 0.82323694
vt 0.24546683 0.82323694
vt 0.24552527 0.8996928
vt 0.27310577 0.89969075
vt 0.3961062 0.89968175
vt 0.34562582 0.8207972
vt 0.37326476 0.8996897
vt 0.32065248 0.8996882
vt 0.34568426 0.8996917
vt 0.34562582 0.8207972
vt 0.30223712 0.89968246
vt 0.32065248 0.8996882
vt 0.34562582 0.8207972
vt 0.34562582 0.8207972
vt 0.34568426 0.8996917
vt 0.37326476 0.8996897
vt 0.49641687 0.9854529
vt 0.44593644 0.9100831
vt 0.47357535 0.98591244
vt 0.4209631 0.9858241
vt 0.44599488 0.98602784
vt 0.44593644 0.9100831
vt 0.40254778 0.9854933
vt 0.4209631 0.9858241
vt 0.44593644 0.9100831
vt 0.44593644 0.9100831
vt 0.44599488 0.98602784
vt 0.47357535 0.98591244
vt 0.49573773 0.8996828
vt 0.4452573 0.82323694
vt 0.47289622 0.89969075
vt 0.42028397 0.8996892
vt 0.44531575 0.8996928
vt 0.4452573 0.82323694
vt 0.40186864 0.8996835
vt 0.42028397 0.8996892
vt 0.4452573 0.82323694
vt 0.4452573 0.82323694
vt 0.44531575 0.8996928
vt 0.47289622 0.89969075
vt 0.47650108 0.8129127
vt 0.42602068 0.7403252
vt 0.4536596 0.8135284
vt 0.40104735 0.8142673
vt 0.42607912 0.81454015
vt 0.42602068 0.7403252
vt 0.38263202 0.8129669
vt 0.40104735 0.8142673
vt 0.42602068 0.7403252
vt 0.42602068 0.7403252
vt 0.42607912 0.81454015
vt 0.4536596 0.8135284
vt 0.48084703 0.72810197
vt 0.43036664 0.65399796
vt 0.45800555 0.72819066
vt 0.4053933 0.7281736
vt 0.43042508 0.7282129
vt 0.43036664 0.65399796
vt 0.38697797 0.7281097
vt 0.4053933 0.7281736
vt 0.43036664 0.65399796
vt 0.43036664 0.65399796
vt 0.43042508 0.7282129
vt 0.45800555 0.72819066
vt 0.09648649 0.9854968
vt 0.046006083 0.91185683
vt 0.07364502 0.98595643
vt 0.021032767 0.9858681
vt 0.04606452 0.9860718
vt 0.046006083 0.91185683
vt 0.0026174071 0.9855373
vt 0.021032767 0.9858681
vt 0.046006083 0.91185683
vt 0.046006083 0.91185683
vt 0.04606452 0.9860718
vt 0.07364502 0.98595643

g W_mace_02
s 1
usemtl W_mace_02
f 3/3/3 2/2/2 1/1/1 
f 2/2/2 4/4/4 1/1/1 
f 5/5/5 2/2/2 3/3/3 
f 6/6/6 5/5/5 3/3/3 
f 1/1/1 4/4/4 7/7/7 
f 4/4/4 8/8/8 7/7/7 
f 7/7/7 8/8/8 9/9/9 
f 8/8/8 10/10/10 9/9/9 
f 9/9/9 10/10/10 11/11/11 
f 10/10/10 12/12/12 11/11/11 
f 11/11/11 12/12/12 13/13/13 
f 12/12/12 14/14/14 13/13/13 
f 2/2/2 15/15/15 4/4/4 
f 15/15/15 16/16/16 4/4/4 
f 4/4/4 16/16/16 8/8/8 
f 5/5/5 17/17/17 2/2/2 
f 17/17/17 15/15/15 2/2/2 
f 12/12/12 18/18/18 14/14/14 
f 18/18/18 19/19/19 14/14/14 
f 10/10/10 20/20/20 12/12/12 
f 20/20/20 18/18/18 12/12/12 
f 8/8/8 21/21/21 10/10/10 
f 21/21/21 20/20/20 10/10/10 
f 16/16/16 21/21/21 8/8/8 
f 15/15/15 22/22/22 16/16/16 
f 22/22/22 23/23/23 16/16/16 
f 16/16/16 23/23/23 21/21/21 
f 17/17/17 24/24/24 15/15/15 
f 24/24/24 22/22/22 15/15/15 
f 18/18/18 25/25/25 19/19/19 
f 25/25/25 26/26/26 19/19/19 
f 20/20/20 27/27/27 18/18/18 
f 27/27/27 25/25/25 18/18/18 
f 21/21/21 28/28/28 20/20/20 
f 28/28/28 27/27/27 20/20/20 
f 23/23/23 28/28/28 21/21/21 
f 22/22/22 29/29/29 23/23/23 
f 29/29/29 30/30/30 23/23/23 
f 23/23/23 30/30/30 28/28/28 
f 24/24/24 31/31/31 22/22/22 
f 31/31/31 29/29/29 22/22/22 
f 25/25/25 32/32/32 26/26/26 
f 32/32/32 33/33/33 26/26/26 
f 27/27/27 34/34/34 25/25/25 
f 34/34/34 32/32/32 25/25/25 
f 28/28/28 35/35/35 27/27/27 
f 35/35/35 34/34/34 27/27/27 
f 30/30/30 35/35/35 28/28/28 
f 29/29/29 36/36/36 30/30/30 
f 36/36/36 37/37/37 30/30/30 
f 30/30/30 37/37/37 35/35/35 
f 31/31/31 38/38/38 29/29/29 
f 38/38/38 36/36/36 29/29/29 
f 32/32/32 39/39/39 33/33/33 
f 39/39/39 40/40/40 33/33/33 
f 34/34/34 41/41/41 32/32/32 
f 41/41/41 39/39/39 32/32/32 
f 35/35/35 42/42/42 34/34/34 
f 42/42/42 41/41/41 34/34/34 
f 37/37/37 42/42/42 35/35/35 
f 36/36/36 43/43/43 37/37/37 
f 43/43/43 44/44/44 37/37/37 
f 37/37/37 44/44/44 42/42/42 
f 38/38/38 45/45/45 36/36/36 
f 45/45/45 43/43/43 36/36/36 
f 39/39/39 46/46/46 40/40/40 
f 46/46/46 47/47/47 40/40/40 
f 41/41/41 48/48/48 39/39/39 
f 48/48/48 46/46/46 39/39/39 
f 42/42/42 49/49/49 41/41/41 
f 49/49/49 48/48/48 41/41/41 
f 44/44/44 49/49/49 42/42/42 
f 43/43/43 50/50/50 44/44/44 
f 50/50/50 51/51/51 44/44/44 
f 44/44/44 51/51/51 49/49/49 
f 45/45/45 52/52/52 43/43/43 
f 52/52/52 50/50/50 43/43/43 
f 46/46/46 53/53/53 47/47/47 
f 53/53/53 54/54/54 47/47/47 
f 48/48/48 55/55/55 46/46/46 
f 55/55/55 53/53/53 46/46/46 
f 49/49/49 56/56/56 48/48/48 
f 56/56/56 55/55/55 48/48/48 
f 51/51/51 56/56/56 49/49/49 
f 59/59/59 58/58/58 57/57/57 
f 57/57/57 60/60/60 59/59/59 
f 60/60/60 61/61/61 59/59/59 
f 60/60/60 62/62/62 61/61/61 
f 65/65/65 64/64/64 63/63/63 
f 63/63/63 66/66/66 65/65/65 
f 63/63/63 67/67/67 66/66/66 
f 67/67/67 68/68/68 66/66/66 
f 71/71/71 70/70/70 69/69/69 
f 74/74/74 73/73/73 72/72/72 
f 77/77/77 76/76/76 75/75/75 
f 80/80/80 79/79/79 78/78/78 
f 83/83/83 82/82/82 81/81/81 
f 86/86/86 85/85/85 84/84/84 
f 89/89/89 88/88/88 87/87/87 
f 92/92/92 91/91/91 90/90/90 
f 95/95/95 94/94/94 93/93/93 
f 98/98/98 97/97/97 96/96/96 
f 101/101/101 100/100/100 99/99/99 
f 104/104/104 103/103/103 102/102/102 
f 107/107/107 106/106/106 105/105/105 
f 110/110/110 109/109/109 108/108/108 
f 113/113/113 112/112/112 111/111/111 
f 116/116/116 115/115/115 114/114/114 
f 119/119/119 118/118/118 117/117/117 
f 122/122/122 121/121/121 120/120/120 
f 125/125/125 124/124/124 123/123/123 
f 128/128/128 127/127/127 126/126/126 
f 131/131/131 130/130/130 129/129/129 
f 134/134/134 133/133/133 132/132/132 
f 137/137/137 136/136/136 135/135/135 
f 140/140/140 139/139/139 138/138/138 
f 143/143/143 142/142/142 141/141/141 
f 146/146/146 145/145/145 144/144/144 
f 149/149/149 148/148/148 147/147/147 
f 152/152/152 151/151/151 150/150/150 
f 155/155/155 154/154/154 153/153/153 
f 158/158/158 157/157/157 156/156/156 
f 161/161/161 160/160/160 159/159/159 
f 164/164/164 163/163/163 162/162/162 
f 167/167/167 166/166/166 165/165/165 
f 170/170/170 169/169/169 168/168/168 
f 173/173/173 172/172/172 171/171/171 
f 176/176/176 175/175/175 174/174/174 
f 179/179/179 178/178/178 177/177/177 
f 182/182/182 181/181/181 180/180/180 
f 185/185/185 184/184/184 183/183/183 
f 188/188/188 187/187/187 186/186/186 
f 191/191/191 190/190/190 189/189/189 
f 194/194/194 193/193/193 192/192/192 
f 197/197/197 196/196/196 195/195/195 
f 200/200/200 199/199/199 198/198/198 
f 203/203/203 202/202/202 201/201/201 
f 206/206/206 205/205/205 204/204/204 
f 209/209/209 208/208/208 207/207/207 
f 212/212/212 211/211/211 210/210/210 

