# Created by DisUnity v0.3.4
v 0.24366477 -0.07512055 0.3054812
v 0.4233766 -0.06997929 0.40765846
v 0.28573713 -0.07412203 0.22082531
v 0.3048595 -0.07320517 0.43720382
v 0.09704748 -0.07763369 0.2624508
v 0.38996714 -0.07172893 0.21210116
v 0.4645701 -0.06944249 0.2986307
v 0.09704748 -0.07763369 0.2624508
v 0.1862385 -0.07608545 0.41048634
v -0.07650439 -0.081885695 0.24561167
v -0.15642115 -0.0846856 0.36329237
v -0.26133397 -0.087614015 0.26922417
v -0.3816537 -0.10356922 0.36935583
v -0.24052235 -0.100072935 0.39583138
v -0.4283693 -0.104633495 0.48109215
v -0.2189269 -0.09938977 0.48339146
v -0.27955604 -0.100477956 0.5891063
v -0.39214572 -0.103320554 0.58621186
v -0.060706377 -0.070070416 -0.3627485
v -0.060706377 -0.070070416 -0.3627485
v 0.09459001 -0.08466919 -0.36444664
v -0.10017324 -0.10733203 -0.5311208
v 0.14642413 -0.13939008 -0.53237426
v -0.07466053 -0.08606292 -0.6303134
v 0.11646348 -0.111292385 -0.6341517
v 0.24140635 0.08710249 0.30571377
v 0.42052788 0.09208146 0.4082033
v 0.30197045 0.08913848 0.4375949
v 0.2821218 0.08783521 0.2205128
v 0.094020836 0.082143135 0.2629454
v 0.18225697 0.08609521 0.40998197
v -0.07763998 0.07780878 0.24591208
v -0.15816271 0.077404164 0.36307612
v -0.26104337 0.074438214 0.26984882
v -0.38412803 0.08515914 0.37042066
v -0.24181539 0.08882239 0.39737478
v -0.42897993 0.08442806 0.47778273
v -0.21989068 0.0897262 0.4844507
v 0.3872605 0.0903917 0.21262115
v 0.46155158 0.09264405 0.2982918
v -0.39473072 0.08566591 0.58790666
v -0.28283244 0.08842967 0.59100956
v 0.095543675 0.060122393 -0.36361742
v -0.059752703 0.059441328 -0.3618009
v 0.1451653 0.09580255 -0.53198695
v -0.1008065 0.10070857 -0.530514
v 0.11547929 0.073532596 -0.6329664
v -0.07514881 0.07738376 -0.6284565
v 0.3872605 0.0903917 0.21262115
v 0.4645701 -0.06944249 0.2986307
v 0.46155158 0.09264405 0.2982918
v 0.38996714 -0.07172893 0.21210116
v 0.24140635 0.08710249 0.30571377
v 0.28573713 -0.07412203 0.22082531
v 0.2821218 0.08783521 0.2205128
v 0.24366477 -0.07512055 0.3054812
v 0.094020836 0.082143135 0.2629454
v 0.24366477 -0.07512055 0.3054812
v 0.24140635 0.08710249 0.30571377
v 0.09704748 -0.07763369 0.2624508
v -0.26104337 0.074438214 0.26984882
v -0.07650439 -0.081885695 0.24561167
v -0.07763998 0.07780878 0.24591208
v -0.26133397 -0.087614015 0.26922417
v -0.38412803 0.08515914 0.37042066
v -0.3816537 -0.10356922 0.36935583
v -0.42897993 0.08442806 0.47778273
v -0.3816537 -0.10356922 0.36935583
v -0.4283693 -0.104633495 0.48109215
v -0.3816537 -0.10356922 0.36935583
v -0.39214572 -0.103320554 0.58621186
v -0.39473072 0.08566591 0.58790666
v -0.4283693 -0.104633495 0.48109215
v -0.28283244 0.08842967 0.59100956
v -0.39214572 -0.103320554 0.58621186
v -0.39473072 0.08566591 0.58790666
v -0.27955604 -0.100477956 0.5891063
v -0.24181539 0.08882239 0.39737478
v -0.2189269 -0.09938977 0.48339146
v -0.21989068 0.0897262 0.4844507
v -0.24052235 -0.100072935 0.39583138
v -0.28283244 0.08842967 0.59100956
v -0.27955604 -0.100477956 0.5891063
v -0.15816271 0.077404164 0.36307612
v -0.24052235 -0.100072935 0.39583138
v -0.24181539 0.08882239 0.39737478
v -0.15642115 -0.0846856 0.36329237
v 0.18225697 0.08609521 0.40998197
v 0.1862385 -0.07608545 0.41048634
v 0.30197045 0.08913848 0.4375949
v 0.3048595 -0.07320517 0.43720382
v 0.42052788 0.09208146 0.4082033
v 0.4233766 -0.06997929 0.40765846
v 0.3872605 0.0903917 0.21262115
v 0.28573713 -0.07412203 0.22082531
v 0.38996714 -0.07172893 0.21210116
v 0.2821218 0.08783521 0.2205128
v 0.4645701 -0.06944249 0.2986307
v 0.42052788 0.09208146 0.4082033
v 0.46155158 0.09264405 0.2982918
v 0.4645701 -0.06944249 0.2986307
v 0.4233766 -0.06997929 0.40765846
v 0.11646348 -0.111292385 -0.6341517
v -0.07514881 0.07738376 -0.6284565
v -0.07466053 -0.08606292 -0.6303134
v 0.11646348 -0.111292385 -0.6341517
v 0.11547929 0.073532596 -0.6329664
v -0.059752703 0.059441328 -0.3618009
v -0.07650439 -0.081885695 0.24561167
v -0.060706377 -0.070070416 -0.3627485
v -0.07763998 0.07780878 0.24591208
v -0.1008065 0.10070857 -0.530514
v -0.10017324 -0.10733203 -0.5311208
v -0.07514881 0.07738376 -0.6284565
v -0.07466053 -0.08606292 -0.6303134
v 0.09459001 -0.08466919 -0.36444664
v 0.094020836 0.082143135 0.2629454
v 0.095543675 0.060122393 -0.36361742
v 0.09704748 -0.07763369 0.2624508
v 0.14642413 -0.13939008 -0.53237426
v 0.1451653 0.09580255 -0.53198695
v 0.11646348 -0.111292385 -0.6341517
v 0.11547929 0.073532596 -0.6329664
v -0.1766634 0.06964428 1.5463285
v -0.13191026 -0.05998577 0.34256697
v -0.12849554 0.06592955 0.3431039
v -0.17867866 -0.058093216 1.544424
v -0.33309263 0.06814858 2.4595046
v -0.33459508 -0.06982967 2.4573464
v -0.6220649 0.06447116 3.2955132
v -0.6229617 -0.096757725 3.2937639
v -1.0428876 -0.008418793 3.9831076
v 0.1692343 -0.022015035 0.3843099
v 0.07733785 0.07098556 0.3714174
v 0.075768866 -0.055115066 0.3711233
v -0.13191026 -0.05998577 0.34256697
v 0.31355706 -0.016379831 0.9845319
v 0.075768866 -0.055115066 0.3711233
v 0.40242958 -0.012184461 1.55698
v -0.17867866 -0.058093216 1.544424
v 0.4187409 -0.008895615 2.405736
v -0.33459508 -0.06982967 2.4573464
v 0.32375133 -0.013193747 2.4718256
v 0.41110912 -0.017635684 2.5923247
v 0.32408306 -0.026847908 2.9603195
v 0.09367988 -0.035168152 3.0507212
v -0.6229617 -0.096757725 3.2937639
v 0.28557667 -0.032415334 3.1515188
v 0.19034201 -0.040525846 3.521876
v -0.11407306 -0.017965492 3.7985723
v -0.49416217 -0.02703232 3.9232528
v -1.0428876 -0.008418793 3.9831076
v 0.1692343 -0.022015035 0.3843099
v -0.6220649 0.06447116 3.2955132
v -0.11407306 -0.017965492 3.7985723
v -0.49416217 -0.02703232 3.9232528
v 0.19034201 -0.040525846 3.521876
v -1.0428876 -0.008418793 3.9831076
v 0.28557667 -0.032415334 3.1515188
v 0.09367988 -0.035168152 3.0507212
v -0.33309263 0.06814858 2.4595046
v 0.32408306 -0.026847908 2.9603195
v 0.41110912 -0.017635684 2.5923247
v 0.32375133 -0.013193747 2.4718256
v 0.4187409 -0.008895615 2.405736
v -0.1766634 0.06964428 1.5463285
v 0.40242958 -0.012184461 1.55698
v 0.31355706 -0.016379831 0.9845319
v -0.12849554 0.06592955 0.3431039
v 0.07733785 0.07098556 0.3714174
v 0.1692343 -0.022015035 0.3843099
vn 0.02369158 -0.9997178 0.0017430005
vn 0.025963727 -0.99965775 0.0031886534
vn 0.025879694 -0.9996598 0.003261147
vn 0.024948072 -0.9996872 0.0017610384
vn 0.005738049 -0.9999759 -0.003914199
vn 0.02405585 -0.999699 0.0048345067
vn 0.024055848 -0.999699 0.0048345067
vn 0.005738049 -0.9999759 -0.003914199
vn 0.021460967 -0.9997696 -3.2651905E-4
vn 0.006057036 -0.99997103 -0.0046184193
vn 0.044090822 -0.99836487 -0.03638292
vn 0.06369717 -0.9951533 -0.074916705
vn 0.04317815 -0.9984238 -0.035854824
vn 0.056024056 -0.99651176 -0.061852265
vn 0.024932547 -0.99968576 0.0026145335
vn 0.02491904 -0.9996865 0.0024422428
vn 0.025038304 -0.9996786 0.003964033
vn 0.025038304 -0.9996786 0.003964033
vn -0.072929785 -0.9882118 0.13460585
vn -0.072929785 -0.9882118 0.13460585
vn -0.07486002 -0.9871622 0.1410916
vn -0.12285949 -0.9923005 0.015660148
vn -0.123072565 -0.9923449 0.010234303
vn -0.12884535 -0.9636922 -0.23387219
vn -0.12884535 -0.9636922 -0.23387219
vn -0.026988044 0.9996232 -0.005021247
vn -0.02532507 0.9996712 -0.0039960607
vn -0.026576329 0.9996363 -0.004584328
vn -0.025304208 0.9996717 -0.0040153316
vn -0.021248404 0.9996055 -0.018370684
vn -0.02704353 0.9996012 -0.008133591
vn -0.019456798 0.9996202 -0.019515883
vn -0.005549611 0.9990275 -0.043740276
vn 0.0135610225 0.9966221 -0.080997
vn -0.0068499073 0.9991309 -0.041115917
vn 0.005890773 0.9977329 -0.06703943
vn -0.025069583 0.9996798 -0.003441215
vn -0.025075447 0.99967945 -0.0034844454
vn -0.024882916 0.99968064 -0.0044044163
vn -0.024882918 0.99968064 -0.0044044163
vn -0.025015365 0.9996824 -0.0030417384
vn -0.025015365 0.9996824 -0.0030417386
vn 3.1048118E-4 0.99422437 0.10732158
vn -1.7533508E-4 0.99473023 0.10252694
vn 0.014666868 0.99989116 -0.0015985153
vn 0.014630934 0.9998909 0.0020520631
vn 0.016481087 0.9745181 -0.22370243
vn 0.016481087 0.9745181 -0.22370246
vn 0.75619096 0.01371897 -0.6542071
vn 0.75619096 0.01371897 -0.6542071
vn 0.7561911 0.01371897 -0.65420717
vn 0.75619096 0.01371897 -0.6542071
vn -0.8987261 -0.016391834 -0.438204
vn -0.8987261 -0.016391834 -0.438204
vn -0.8987261 -0.016391834 -0.438204
vn -0.8987261 -0.016391832 -0.43820396
vn 0.2799794 0.006763307 -0.9599822
vn 0.2799794 0.0067633074 -0.9599822
vn 0.2799794 0.006763307 -0.9599822
vn 0.2799794 0.0067633074 -0.9599822
vn -0.40169922 0.0011596855 -0.9157709
vn -0.12812561 0.0025149307 -0.9917548
vn -0.12812562 0.0025149307 -0.9917548
vn -0.40858448 0.0011220861 -0.91271985
vn -0.80699253 -0.005323563 -0.5905378
vn -0.8070744 -0.0053263246 -0.59042567
vn -0.999035 -0.008832685 -0.043024022
vn -0.8070744 -0.0053263246 -0.59042567
vn -0.9993057 -0.008802122 -0.036201738
vn -0.8070744 -0.0053263246 -0.59042567
vn -0.9503139 -0.006703723 0.3112212
vn -0.9503139 -0.006703723 0.31122124
vn -0.9993057 -0.008802122 -0.036201738
vn -0.026457125 -0.009927843 0.9996007
vn -0.026457125 -0.009927844 0.9996007
vn -0.026457125 -0.009927843 0.9996007
vn -0.026457122 -0.009927844 0.9996007
vn 0.9702809 0.00745806 -0.24186653
vn 0.9901698 0.0071310443 0.13968801
vn 0.98977846 0.007124746 0.14243515
vn 0.9702809 0.0074580605 -0.24186653
vn 0.8641888 0.005750429 0.5031349
vn 0.8641888 0.005750429 0.50313485
vn 0.13043012 -2.70622E-4 0.9914574
vn 0.37013692 -3.1250232E-4 0.92897713
vn 0.37013692 -3.125023E-4 0.92897713
vn 0.13465118 -2.7148903E-4 0.990893
vn -0.17948823 -0.0022875245 0.98375744
vn -0.17948999 -0.00228761 0.9837571
vn 0.010879165 -0.001475019 0.9999398
vn 0.008632691 -0.0015032805 0.9999616
vn 0.24122137 0.0014666684 0.970469
vn 0.24122135 0.0014666683 0.970469
vn -0.07909144 -9.046579E-4 -0.9968669
vn -0.07909144 -9.0465794E-4 -0.9968669
vn -0.07909144 -9.0465794E-4 -0.9968669
vn -0.079091445 -9.04658E-4 -0.9968669
vn 0.936009 0.016718911 0.35157895
vn 0.9360089 0.016718911 0.35157895
vn 0.936009 0.016718913 0.35157895
vn 0.936009 0.016718911 0.35157895
vn 0.936009 0.016718913 0.35157895
vn -0.021204034 0.008643256 -0.9997378
vn -0.021204036 0.008643256 -0.9997378
vn -0.021204034 0.008643255 -0.9997378
vn -0.021204034 0.008643256 -0.9997378
vn -0.021204036 0.008643256 -0.9997378
vn -0.9938851 -3.2072424E-4 0.11041912
vn -0.9996165 -5.093196E-4 -0.027686683
vn -0.993785 -3.194693E-4 0.11131638
vn -0.9996165 -5.093196E-4 -0.027686685
vn -0.99995124 -7.2302186E-4 -0.009849266
vn -0.9999399 -7.255316E-4 -0.0109433355
vn -0.9679262 -0.0012560451 -0.25123167
vn -0.9679262 -0.0012560451 -0.25123167
vn 0.9872283 0.0030321898 0.15928307
vn 0.9999764 0.006810037 -9.0348505E-4
vn 0.9883299 0.0032006989 0.1522951
vn 0.9999764 0.0068100374 -9.0348505E-4
vn 0.9999933 0.0032017268 -0.00179621
vn 0.9999838 0.0031291065 0.004751625
vn 0.9593796 0.0061794333 -0.28205094
vn 0.9593796 0.006179433 -0.28205094
vn -0.99432075 0.018706735 -0.10476714
vn -0.9989831 0.021765405 -0.039483797
vn -0.9989831 0.021765405 -0.039483793
vn -0.9944127 0.018748827 -0.10388322
vn -0.96851236 0.013765164 -0.24858448
vn -0.96851826 0.013765709 -0.24856184
vn -0.905795 0.011203935 -0.42356807
vn -0.90602624 0.011207556 -0.42307296
vn -0.85338044 0.010401472 -0.52118474
vn 0.13950229 5.736381E-4 -0.9902216
vn 0.1395023 5.736382E-4 -0.9902216
vn 0.1395023 5.736382E-4 -0.9902216
vn 0.046534054 -0.9983841 0.03261532
vn 0.092672706 -0.99569416 0.002188613
vn 0.12849095 -0.99162793 0.012809242
vn 0.082088865 -0.9966233 0.0018990863
vn 0.08263836 -0.9965784 0.0015597907
vn 0.08108466 -0.99659073 0.015244099
vn 0.07786555 -0.99696046 -0.0025980906
vn 0.08606643 -0.99614704 -0.016838722
vn 0.07680792 -0.9962793 -0.039089188
vn 0.059366923 -0.9982077 0.007557149
vn 0.060074892 -0.997811 -0.027646083
vn 0.045468118 -0.99742764 0.05541386
vn 0.06565751 -0.99733645 -0.031766668
vn 0.056301672 -0.99739325 0.04513104
vn 0.04357014 -0.9928596 0.11104661
vn 0.017121352 -0.9941531 0.10661426
vn -0.021217419 -0.9932134 0.11435468
vn 0.34211835 -0.9367805 -0.07346702
vn 0.093846254 0.99274796 0.07512952
vn 0.077937536 0.9934057 0.08408833
vn 0.035336453 0.98992693 0.13709845
vn 0.11455866 0.99220324 0.04908104
vn 0.0482386 0.98974645 0.13444331
vn 0.10144486 0.9943995 -0.029642232
vn 0.079342626 0.99680614 -0.00907887
vn 0.1202261 0.9917155 0.045232814
vn 0.06760671 0.992729 0.09959029
vn 0.11181709 0.99361223 0.015222237
vn 0.12052251 0.9879439 0.097165324
vn 0.1184888 0.99084115 0.064762615
vn 0.14014265 0.99013114 5.7891017E-4
vn 0.13977885 0.99018246 7.130413E-4
vn 0.18481947 0.98275316 -0.006156049
vn 0.04605766 0.9952018 0.08632404
vn 0.243687 0.9688476 0.044168264
vn 0.7122057 0.67912614 -0.1776251
vt 0.37208655 0.79940593
vt 0.41450918 0.78031504
vt 0.38329542 0.81388116
vt 0.39170212 0.770458
vt 0.34533668 0.81045985
vt 0.4037075 0.81731725
vt 0.41980457 0.8022758
vt 0.34533668 0.81045985
vt 0.36014628 0.7708837
vt 0.29920214 0.80973923
vt 0.29819757 0.7698959
vt 0.26744896 0.78653944
vt 0.2444254 0.7630975
vt 0.27602047 0.76030314
vt 0.23765847 0.7383957
vt 0.27863055 0.7430059
vt 0.26967567 0.72122777
vt 0.24756263 0.7186583
vt 0.29745948 0.9081211
vt 0.29745948 0.9081211
vt 0.3343618 0.9088669
vt 0.29996988 0.95121455
vt 0.3485082 0.9443507
vt 0.31148553 0.97110415
vt 0.34521043 0.9651108
vt 0.15999153 0.8005805
vt 0.20205146 0.7837016
vt 0.17714988 0.77373415
vt 0.16627018 0.8203317
vt 0.12664266 0.80543303
vt 0.15027867 0.77612734
vt 0.088788554 0.80395734
vt 0.074822664 0.7760558
vt 0.049622014 0.7932212
vt 0.025911823 0.76758385
vt 0.057679318 0.76601756
vt 0.019401617 0.7428897
vt 0.06508182 0.74774754
vt 0.18889639 0.82521904
vt 0.20764835 0.8088349
vt 0.03018307 0.7199812
vt 0.05461415 0.7226825
vt 0.115691215 0.9208638
vt 0.08159311 0.91816133
vt 0.13691758 0.95291567
vt 0.08352357 0.960995
vt 0.13425432 0.97568077
vt 0.092872635 0.9819428
vt 0.406362 0.8303869
vt 0.41980457 0.8022758
vt 0.43099913 0.8042519
vt 0.4037075 0.81731725
vt 0.36830327 0.81392765
vt 0.38329542 0.81388116
vt 0.38114703 0.826197
vt 0.37208655 0.79940593
vt 0.35529158 0.82638764
vt 0.37208655 0.79940593
vt 0.36830327 0.81392765
vt 0.34533668 0.81045985
vt 0.25857422 0.7968017
vt 0.29920214 0.80973923
vt 0.28310603 0.8141246
vt 0.26744896 0.78653944
vt 0.23242639 0.7698698
vt 0.2444254 0.7630975
vt 0.2242582 0.7354895
vt 0.2444254 0.7630975
vt 0.23765847 0.7383957
vt 0.2444254 0.7630975
vt 0.24756263 0.7186583
vt 0.24052809 0.7076318
vt 0.23765847 0.7383957
vt 0.2765955 0.711511
vt 0.24756263 0.7186583
vt 0.24052809 0.7076318
vt 0.26967567 0.72122777
vt 0.28956205 0.75468814
vt 0.27863055 0.7430059
vt 0.28941548 0.7419158
vt 0.27602047 0.76030314
vt 0.2765955 0.711511
vt 0.26967567 0.72122777
vt 0.3039536 0.757571
vt 0.27602047 0.76030314
vt 0.28956205 0.75468814
vt 0.29819757 0.7698959
vt 0.36157516 0.7563621
vt 0.36014628 0.7708837
vt 0.39642495 0.7571931
vt 0.39170212 0.770458
vt 0.4240734 0.77329624
vt 0.41450918 0.78031504
vt 0.406362 0.8303869
vt 0.38329542 0.81388116
vt 0.4037075 0.81731725
vt 0.38114703 0.826197
vt 0.41980457 0.8022758
vt 0.4240734 0.77329624
vt 0.43099913 0.8042519
vt 0.41980457 0.8022758
vt 0.41450918 0.78031504
vt 0.34521043 0.9651108
vt 0.31509987 0.9887345
vt 0.31148553 0.97110415
vt 0.34521043 0.9651108
vt 0.3389629 0.9894713
vt 0.28256807 0.90850186
vt 0.29920214 0.80973923
vt 0.29745948 0.9081211
vt 0.28310603 0.8141246
vt 0.28005767 0.9525684
vt 0.29996988 0.95121455
vt 0.28994226 0.9763134
vt 0.31148553 0.97110415
vt 0.3343618 0.9088669
vt 0.35529158 0.82638764
vt 0.34962156 0.90792286
vt 0.34533668 0.81045985
vt 0.3485082 0.9443507
vt 0.3651926 0.9379966
vt 0.34521043 0.9651108
vt 0.3644906 0.96928203
vt 0.12590367 0.5287078
vt 0.08834794 0.75703937
vt 0.102448165 0.7596675
vt 0.10216236 0.5251292
vt 0.12013827 0.3384313
vt 0.0911812 0.3391239
vt 0.08511351 0.1648097
vt 0.06337224 0.16828722
vt 0.019642085 0.01829338
vt 0.16472042 0.7624079
vt 0.14549236 0.7624381
vt 0.14549236 0.7624381
vt 0.29830506 0.7502513
vt 0.40740937 0.6380364
vt 0.34134924 0.75302196
vt 0.44204682 0.52705634
vt 0.32183614 0.518386
vt 0.46965992 0.35932845
vt 0.31625706 0.3288269
vt 0.45200732 0.3436165
vt 0.47336835 0.32214737
vt 0.4659438 0.24683362
vt 0.4211384 0.22257352
vt 0.2809704 0.15539348
vt 0.46346176 0.20788646
vt 0.45442256 0.1318788
vt 0.39992324 0.06866658
vt 0.3253375 0.033490777
vt 0.21549898 0.008877158
vt 0.36057732 0.7529917
vt 0.08511351 0.1648097
vt 0.20406634 0.0780828
vt 0.1294806 0.042907
vt 0.25856566 0.14129502
vt 0.019642085 0.01829338
vt 0.26760486 0.21730268
vt 0.22528152 0.23198974
vt 0.12013827 0.3384313
vt 0.2700869 0.25624985
vt 0.27751145 0.3315636
vt 0.25615042 0.3530327
vt 0.27380303 0.36940402
vt 0.12590367 0.5287078
vt 0.24618992 0.5371319
vt 0.21155246 0.64745253
vt 0.102448165 0.7596675
vt 0.14549236 0.7624381
vt 0.16472042 0.7624079

g W_sword_03
s 1
usemtl W_sword_03
f 3/3/3 2/2/2 1/1/1 
f 2/2/2 4/4/4 1/1/1 
f 1/1/1 4/4/4 5/5/5 
f 2/2/2 3/3/3 6/6/6 
f 7/7/7 2/2/2 6/6/6 
f 4/4/4 9/9/9 8/8/8 
f 8/8/8 9/9/9 10/10/10 
f 9/9/9 11/11/11 10/10/10 
f 10/10/10 11/11/11 12/12/12 
f 12/12/12 11/11/11 13/13/13 
f 11/11/11 14/14/14 13/13/13 
f 13/13/13 14/14/14 15/15/15 
f 14/14/14 16/16/16 15/15/15 
f 15/15/15 16/16/16 17/17/17 
f 18/18/18 15/15/15 17/17/17 
f 8/8/8 10/10/10 19/19/19 
f 21/21/21 5/5/5 20/20/20 
f 21/21/21 20/20/20 22/22/22 
f 23/23/23 21/21/21 22/22/22 
f 22/22/22 24/24/24 23/23/23 
f 24/24/24 25/25/25 23/23/23 
f 28/28/28 27/27/27 26/26/26 
f 27/27/27 29/29/29 26/26/26 
f 28/28/28 26/26/26 30/30/30 
f 31/31/31 28/28/28 30/30/30 
f 30/30/30 32/32/32 31/31/31 
f 32/32/32 33/33/33 31/31/31 
f 33/33/33 32/32/32 34/34/34 
f 33/33/33 34/34/34 35/35/35 
f 36/36/36 33/33/33 35/35/35 
f 36/36/36 35/35/35 37/37/37 
f 38/38/38 36/36/36 37/37/37 
f 29/29/29 27/27/27 39/39/39 
f 27/27/27 40/40/40 39/39/39 
f 38/38/38 37/37/37 41/41/41 
f 42/42/42 38/38/38 41/41/41 
f 32/32/32 30/30/30 43/43/43 
f 44/44/44 32/32/32 43/43/43 
f 44/44/44 43/43/43 45/45/45 
f 46/46/46 44/44/44 45/45/45 
f 45/45/45 47/47/47 46/46/46 
f 47/47/47 48/48/48 46/46/46 
f 51/51/51 50/50/50 49/49/49 
f 50/50/50 52/52/52 49/49/49 
f 55/55/55 54/54/54 53/53/53 
f 54/54/54 56/56/56 53/53/53 
f 59/59/59 58/58/58 57/57/57 
f 58/58/58 60/60/60 57/57/57 
f 63/63/63 62/62/62 61/61/61 
f 62/62/62 64/64/64 61/61/61 
f 61/61/61 64/64/64 65/65/65 
f 64/64/64 66/66/66 65/65/65 
f 65/65/65 68/68/68 67/67/67 
f 70/70/70 69/69/69 67/67/67 
f 72/72/72 67/67/67 71/71/71 
f 67/67/67 73/73/73 71/71/71 
f 76/76/76 75/75/75 74/74/74 
f 75/75/75 77/77/77 74/74/74 
f 80/80/80 79/79/79 78/78/78 
f 79/79/79 81/81/81 78/78/78 
f 79/79/79 80/80/80 82/82/82 
f 83/83/83 79/79/79 82/82/82 
f 86/86/86 85/85/85 84/84/84 
f 85/85/85 87/87/87 84/84/84 
f 84/84/84 87/87/87 88/88/88 
f 87/87/87 89/89/89 88/88/88 
f 88/88/88 89/89/89 90/90/90 
f 89/89/89 91/91/91 90/90/90 
f 90/90/90 91/91/91 92/92/92 
f 91/91/91 93/93/93 92/92/92 
f 96/96/96 95/95/95 94/94/94 
f 95/95/95 97/97/97 94/94/94 
f 100/100/100 99/99/99 98/98/98 
f 99/99/99 102/102/102 101/101/101 
f 105/105/105 104/104/104 103/103/103 
f 104/104/104 107/107/107 106/106/106 
f 110/110/110 109/109/109 108/108/108 
f 109/109/109 111/111/111 108/108/108 
f 110/110/110 108/108/108 112/112/112 
f 113/113/113 110/110/110 112/112/112 
f 112/112/112 114/114/114 113/113/113 
f 114/114/114 115/115/115 113/113/113 
f 118/118/118 117/117/117 116/116/116 
f 117/117/117 119/119/119 116/116/116 
f 118/118/118 116/116/116 120/120/120 
f 121/121/121 118/118/118 120/120/120 
f 120/120/120 122/122/122 121/121/121 
f 122/122/122 123/123/123 121/121/121 
f 126/126/126 125/125/125 124/124/124 
f 125/125/125 127/127/127 124/124/124 
f 124/124/124 127/127/127 128/128/128 
f 127/127/127 129/129/129 128/128/128 
f 128/128/128 129/129/129 130/130/130 
f 129/129/129 131/131/131 130/130/130 
f 131/131/131 132/132/132 130/130/130 
f 135/135/135 134/134/134 133/133/133 
f 138/138/138 137/137/137 136/136/136 
f 137/137/137 139/139/139 136/136/136 
f 139/139/139 140/140/140 136/136/136 
f 141/141/141 140/140/140 139/139/139 
f 142/142/142 140/140/140 141/141/141 
f 143/143/143 142/142/142 141/141/141 
f 143/143/143 144/144/144 142/142/142 
f 144/144/144 145/145/145 142/142/142 
f 145/145/145 146/146/146 142/142/142 
f 146/146/146 147/147/147 142/142/142 
f 148/148/148 147/147/147 146/146/146 
f 149/149/149 147/147/147 148/148/148 
f 149/149/149 150/150/150 147/147/147 
f 150/150/150 151/151/151 147/147/147 
f 147/147/147 151/151/151 152/152/152 
f 153/153/153 137/137/137 138/138/138 
f 156/156/156 155/155/155 154/154/154 
f 154/154/154 155/155/155 157/157/157 
f 158/158/158 156/156/156 154/154/154 
f 157/157/157 159/159/159 154/154/154 
f 159/159/159 160/160/160 154/154/154 
f 160/160/160 161/161/161 154/154/154 
f 162/162/162 161/161/161 160/160/160 
f 163/163/163 161/161/161 162/162/162 
f 164/164/164 161/161/161 163/163/163 
f 165/165/165 161/161/161 164/164/164 
f 166/166/166 161/161/161 165/165/165 
f 167/167/167 166/166/166 165/165/165 
f 166/166/166 167/167/167 168/168/168 
f 169/169/169 166/166/166 168/168/168 
f 170/170/170 169/169/169 168/168/168 
f 171/171/171 170/170/170 168/168/168 

