# Created by DisUnity v0.3.4
v -0.041766297 -0.03966881 -1.4602337
v 0.049798798 0.03966881 -1.4602337
v -0.041766334 0.039668772 -1.4602337
v 0.049798835 -0.039668772 -1.4602337
v -0.021598682 -0.03108131 1.113559
v -0.13996941 -8.848386E-8 1.1540136
v 0.0040163477 -0.05389617 1.2785912
v 0.029631358 -0.031081278 1.113559
v 0.14800206 8.919008E-8 1.1540136
v 0.049798835 -0.039668772 -1.4602337
v 0.029631339 0.03108131 1.113559
v 0.049798798 0.03966881 -1.4602337
v 0.029631358 -0.031081278 1.113559
v -0.0215987 0.031081278 1.113559
v 0.049798798 0.03966881 -1.4602337
v -0.041766334 0.039668772 -1.4602337
v -0.041766334 0.039668772 -1.4602337
v -0.021598682 -0.03108131 1.113559
v -0.041766297 -0.03966881 -1.4602337
v -0.021598682 -0.03108131 1.113559
v -0.041766297 -0.03966881 -1.4602337
v 0.029631358 -0.031081278 1.113559
v 0.029631358 -0.031081278 1.113559
v 0.14800206 8.919008E-8 1.1540136
v 0.029631339 0.03108131 1.113559
v -0.0215987 0.031081278 1.113559
v -0.13996941 -8.848386E-8 1.1540136
v -0.021598682 -0.03108131 1.113559
v -0.13996941 -8.848386E-8 1.1540136
v 0.004016341 5.057448E-10 1.5680566
v 0.0040163477 -0.05389617 1.2785912
v 0.14800206 8.919008E-8 1.1540136
v 0.004016341 5.057448E-10 1.5680566
v 0.0040163174 0.05389617 1.2785912
v 0.0040163477 -0.05389617 1.2785912
v 0.004016341 5.057448E-10 1.5680566
v 0.14800206 8.919008E-8 1.1540136
v 0.0040163174 0.05389617 1.2785912
v 0.004016341 5.057448E-10 1.5680566
v -0.13996941 -8.848386E-8 1.1540136
v -0.0215987 0.031081278 1.113559
v 0.0040163174 0.05389617 1.2785912
v -0.13996941 -8.848386E-8 1.1540136
v 0.029631339 0.03108131 1.113559
v 0.14800206 8.919008E-8 1.1540136
v -0.13975868 -0.0022328682 -1.2041104
v -5.3085387E-8 -0.0022873746 -1.4574789
v -0.15803736 -0.0022874442 -1.5680107
v 7.4505806E-9 -0.002232807 -1.0694689
v 0.13975862 -0.002232745 -1.2041104
v 0.1580372 -0.002287305 -1.5680107
v -0.13975868 -0.0039164885 -1.2041563
v -5.2154064E-8 -0.0039709937 -1.4575248
v 8.381903E-9 -0.0039164308 -1.0695146
v -0.15803736 -0.003971068 -1.5680566
v 0.13975862 -0.0039163656 -1.2041563
v 0.1580372 -0.003970929 -1.5680566
vn -0.0 0.0 -1.0
vn -0.0 0.0 -1.0
vn -0.0 0.0 -1.0
vn -0.0 0.0 -1.0
vn -0.14289579 -0.98318046 -0.11374053
vn -0.28114584 -0.95557874 -0.08846662
vn -0.0 -0.9949403 -0.1004684
vn 0.14289701 -0.98318034 -0.11374055
vn 0.281147 -0.9555784 -0.08846662
vn 0.70809156 -0.7060763 0.007904226
vn 0.7060658 0.7081022 0.007895115
vn 0.70809096 0.7060769 0.007904226
vn 0.70606637 -0.7081017 0.007895115
vn -0.70606637 0.7081017 0.007895158
vn 0.70809096 0.7060769 0.007904226
vn -0.7080916 0.7060763 0.00790427
vn -0.7080916 0.7060763 0.00790427
vn -0.7060658 -0.7081022 0.007895158
vn -0.708091 -0.7060769 0.00790427
vn -0.7060658 -0.7081022 0.007895158
vn -0.708091 -0.7060769 0.00790427
vn 0.70606637 -0.7081017 0.007895115
vn 0.32339698 0.0 -0.9462634
vn 0.32339698 0.0 -0.9462634
vn 0.32339698 0.0 -0.9462634
vn -0.32339695 0.0 -0.9462634
vn -0.32339695 0.0 -0.9462634
vn -0.32339692 0.0 -0.9462634
vn -0.46577987 -0.8699497 0.16197774
vn -0.4657798 -0.8699497 0.16197771
vn -0.4657798 -0.8699497 0.16197772
vn 0.46577987 0.8699497 0.1619777
vn 0.46577987 0.8699497 0.1619777
vn 0.46577987 0.8699497 0.1619777
vn 0.46578082 -0.8699491 0.16197763
vn 0.4657808 -0.8699491 0.16197762
vn 0.4657808 -0.8699491 0.16197763
vn -0.46578082 0.8699491 0.16197768
vn -0.4657808 0.8699491 0.16197768
vn -0.46578082 0.8699491 0.1619777
vn -0.14289701 0.98318034 -0.11374054
vn -0.0 0.9949403 -0.1004684
vn -0.28114697 0.9555784 -0.08846661
vn 0.14289579 0.98318046 -0.11374053
vn 0.28114584 0.95557874 -0.08846663
vn -1.21497345E-4 -1.0 1.481086E-4
vn -0.0 -1.0 1.481086E-4
vn -1.2149735E-4 -1.0 1.481086E-4
vn -0.0 -1.0 1.481086E-4
vn 1.2237857E-4 -1.0 1.481086E-4
vn 1.2237857E-4 -1.0 1.481086E-4
vn 1.21491576E-4 1.0 -1.4810718E-4
vn -0.0 1.0 -1.4810702E-4
vn -0.0 1.0 -1.4810702E-4
vn 1.2149156E-4 1.0 -1.4810718E-4
vn -1.2237173E-4 1.0 -1.4810688E-4
vn -1.2237173E-4 1.0 -1.4810688E-4
vt 0.14583051 0.6605123
vt 0.1757648 0.6873868
vt 0.14727914 0.6873868
vt 0.17431617 0.6605123
vt 0.43541014 0.13663429
vt 0.39858535 0.1335423
vt 0.4433789 0.082295
vt 0.45134768 0.13663429
vt 0.48817244 0.1335423
vt 0.4765816 0.8240428
vt 0.45134768 0.17823881
vt 0.45762172 0.8235278
vt 0.47030756 0.1777749
vt 0.43541014 0.17823881
vt 0.45762172 0.8235278
vt 0.42913607 0.8235278
vt 0.42913607 0.8235278
vt 0.40996027 0.1777749
vt 0.4036862 0.8240428
vt 0.49465784 0.1777749
vt 0.48838374 0.8240428
vt 0.47030756 0.1777749
vt 0.45134768 0.13689369
vt 0.48817244 0.1338017
vt 0.45134768 0.1519298
vt 0.43541014 0.1519298
vt 0.39858535 0.1338017
vt 0.43541014 0.13689369
vt 0.39858535 0.1335423
vt 0.4433789 0.009160936
vt 0.4433789 0.082295
vt 0.48817244 0.1335423
vt 0.4433789 0.009160936
vt 0.4433789 0.10994166
vt 0.4433789 0.082295
vt 0.4433789 0.009160936
vt 0.48817244 0.1335423
vt 0.4433789 0.10994166
vt 0.4433789 0.009160936
vt 0.39858535 0.1335423
vt 0.43541014 0.1516704
vt 0.4433789 0.10994166
vt 0.39858535 0.1335423
vt 0.45134768 0.1516704
vt 0.48817244 0.1335423
vt 0.3986509 0.8821682
vt 0.44212943 0.9582596
vt 0.39296448 0.9914641
vt 0.44212946 0.841721
vt 0.48560798 0.8821682
vt 0.49129438 0.9914641
vt 0.3986509 0.8821682
vt 0.44212943 0.9582596
vt 0.44212946 0.841721
vt 0.39296448 0.9914641
vt 0.48560798 0.8821682
vt 0.49129438 0.9914641

g W_arrow_02
s 1
usemtl W_arrow_02
f 3/3/3 2/2/2 1/1/1 
f 2/2/2 4/4/4 1/1/1 
f 7/7/7 6/6/6 5/5/5 
f 8/8/8 7/7/7 5/5/5 
f 9/9/9 7/7/7 8/8/8 
f 12/12/12 11/11/11 10/10/10 
f 11/11/11 13/13/13 10/10/10 
f 11/11/11 15/15/15 14/14/14 
f 15/15/15 16/16/16 14/14/14 
f 18/18/18 14/14/14 17/17/17 
f 19/19/19 18/18/18 17/17/17 
f 21/21/21 10/10/10 20/20/20 
f 10/10/10 22/22/22 20/20/20 
f 25/25/25 24/24/24 23/23/23 
f 28/28/28 27/27/27 26/26/26 
f 31/31/31 30/30/30 29/29/29 
f 34/34/34 33/33/33 32/32/32 
f 37/37/37 36/36/36 35/35/35 
f 40/40/40 39/39/39 38/38/38 
f 43/43/43 42/42/42 41/41/41 
f 42/42/42 44/44/44 41/41/41 
f 45/45/45 44/44/44 42/42/42 
f 48/48/48 47/47/47 46/46/46 
f 47/47/47 49/49/49 46/46/46 
f 50/50/50 49/49/49 47/47/47 
f 51/51/51 50/50/50 47/47/47 
f 54/54/54 53/53/53 52/52/52 
f 53/53/53 55/55/55 52/52/52 
f 54/54/54 56/56/56 53/53/53 
f 56/56/56 57/57/57 53/53/53 

