# Created by DisUnity v0.3.4
v -0.024389595 0.003223449 5.475626
v -0.40645704 0.105589494 4.9736977
v -0.12673178 0.38547248 4.9736986
v -0.3040787 -0.276485 4.9736996
v -0.23517303 0.059891805 4.5146
v -0.080893755 0.21414171 4.5146
v -0.17870563 -0.15100788 4.5146
v 0.032108903 -0.20750204 4.5146
v 0.07798377 -0.37881264 4.9737005
v -0.024389595 0.003223449 5.475626
v 0.3576991 -0.09906572 4.9737005
v 0.18642938 -0.05321326 4.5146
v 0.12993288 0.15760858 4.5146
v 0.25533283 0.28308636 4.9737005
v -0.024389595 0.003223449 5.475626
v -0.12673178 0.38547248 4.9736986
v -0.080893755 0.21414171 4.5146
v 0.21993363 -0.06745409 3.9023516
v 0.2876237 0.3368563 4.3783846
v 0.13300884 0.21785678 3.904369
v 0.3997777 -0.115602106 4.385287
v -0.13987553 0.45136225 4.378386
v -0.06545493 0.2710827 3.9043717
v -0.4632262 0.115646705 4.3852863
v -0.28339458 0.067400426 3.9023511
v -0.35106984 -0.3368123 4.3783875
v -0.1964722 -0.21789087 3.9043725
v 0.076422304 -0.4513569 4.3783855
v 0.0020061731 -0.2710585 3.9043722
v 0.0020061731 -0.2710585 3.9043722
v 0.076422304 -0.4513569 4.3783855
v 0.0020061731 -0.2710585 3.9043722
v 0.21993363 -0.06745409 3.9023516
v 0.13300884 0.21785678 3.904369
v -0.06545493 0.2710827 3.9043717
v -0.1964722 -0.21789087 3.9043725
v -0.28339458 0.067400426 3.9023511
v 0.32235384 -0.09484457 4.570738
v -0.29193956 -0.2623618 4.5713024
v -0.3858069 0.09487 4.570737
v 0.062444806 -0.35731664 4.5713034
v -0.125893 0.35732216 4.5713034
v 0.22848153 0.2623483 4.5713034
v 0.2876237 0.3368563 4.3783846
v 0.32235384 -0.09484457 4.570738
v 0.22848153 0.2623483 4.5713034
v 0.3997777 -0.115602106 4.385287
v -0.13987553 0.45136225 4.378386
v 0.22848153 0.2623483 4.5713034
v -0.125893 0.35732216 4.5713034
v 0.2876237 0.3368563 4.3783846
v -0.4632262 0.115646705 4.3852863
v -0.125893 0.35732216 4.5713034
v -0.3858069 0.09487 4.570737
v -0.13987553 0.45136225 4.378386
v -0.35106984 -0.3368123 4.3783875
v -0.3858069 0.09487 4.570737
v -0.29193956 -0.2623618 4.5713024
v -0.4632262 0.115646705 4.3852863
v 0.076422304 -0.4513569 4.3783855
v -0.29193956 -0.2623618 4.5713024
v 0.062444806 -0.35731664 4.5713034
v -0.35106984 -0.3368123 4.3783875
v 0.3997777 -0.115602106 4.385287
v 0.062444806 -0.35731664 4.5713034
v 0.32235384 -0.09484457 4.570738
v 0.076422304 -0.4513569 4.3783855
v 0.09578836 -0.04811748 3.2762094
v 0.14761966 -0.098709695 2.7157407
v 0.15850627 -0.058072485 2.7157407
v 0.083812 -0.092842 3.2762094
v 0.15850627 -0.058072485 2.7157407
v 0.14761966 -0.098709695 2.7157407
v 0.14394522 -0.09370814 2.20554
v 0.27882636 -0.11538379 2.1164873
v 0.21611625 -0.124873005 2.6590445
v 0.23090732 -0.069673054 2.6590464
v 0.23090732 -0.069673054 2.6590464
v 0.21611625 -0.124873005 2.6590445
v 0.38934153 -0.120261654 2.199676
v 0.080531776 -0.06801839 3.712589
v 0.083812 -0.092842 3.2762094
v 0.09578836 -0.04811748 3.2762094
v 0.17462832 -0.09484574 3.3009617
v 0.080531776 -0.06801839 3.712589
v 0.09578836 -0.04811748 3.2762094
v 0.14682096 -0.08463204 3.7166374
v 0.15850627 -0.058072485 2.7157407
v 0.3378259 -0.10763171 2.8385065
v 0.23090732 -0.069673054 2.6590464
v 0.38934153 -0.120261654 2.199676
v 0.4632283 -0.13902803 2.388583
v 0.14394522 -0.09370814 2.20554
v 0.27882636 -0.11538379 2.1164873
v 0.17462832 -0.09484574 3.3009617
v 0.14761966 -0.098709695 2.7157407
v 0.083812 -0.092842 3.2762094
v 0.3378259 -0.10763171 2.8385065
v 0.21611625 -0.124873005 2.6590445
v 0.27882636 -0.11538379 2.1164873
v 0.14394522 -0.09370814 2.20554
v 0.4632283 -0.13902803 2.388583
v 0.38934153 -0.120261654 2.199676
v 0.080531776 -0.06801839 3.712589
v 0.14682096 -0.08463204 3.7166374
v 0.015502453 0.09661649 -0.009510934
v 0.09827143 -0.03684301 0.93133426
v 0.06609142 0.083372995 0.9318572
v 0.04780522 -0.023315862 -0.009548008
v -0.10430187 0.12840731 -0.009441704
v -0.054136455 0.11563413 0.9329134
v 0.010294855 -0.12486108 0.93185794
v -0.040145308 -0.11104778 -0.009510726
v -0.10995278 -0.0926948 0.93291366
v -0.15978819 -0.078674056 -0.009441495
v -0.14218819 0.027584478 0.93344456
v -0.19166172 0.04083295 -0.009410143
v -0.054136455 0.11563413 0.9329134
v -0.10430187 0.12840731 -0.009441704
v 0.07179567 0.08891395 -1.155972
v 0.10597724 -0.038905658 -1.155744
v 0.08218959 0.09950574 -2.0246458
v 0.12031096 -0.042746253 -2.0246456
v 0.14302349 0.16036247 -3.1868544
v 0.20341009 -0.06501126 -3.1868546
v -0.082333535 0.22070767 -3.1868548
v -0.060068756 0.1376336 -2.0246458
v -0.05609578 0.12333317 -1.1564443
v -0.14988479 0.029638126 -1.1566881
v -0.05609578 0.12333317 -1.1564443
v -0.16421208 0.033483952 -2.0246458
v -0.060068756 0.1376336 -2.0246458
v -0.24730818 0.055745497 -3.1868548
v -0.082333535 0.22070767 -3.1868548
v -0.18692581 -0.16962819 -3.1868546
v -0.12609228 -0.108768046 -2.0246456
v -0.11550614 -0.09838777 -1.1564441
v 0.038431257 -0.22999 -3.1868541
v 0.01616764 -0.14688314 -2.0246456
v 0.012457103 -0.13252705 -1.1559722
v 0.038431257 -0.22999 -3.1868541
v -0.24730818 0.055745497 -3.1868548
v -0.18692581 -0.16962819 -3.1868546
v 0.20341009 -0.06501126 -3.1868546
v 0.14302349 0.16036247 -3.1868544
v -0.082333535 0.22070767 -3.1868548
v 0.0874694 0.11017884 3.2573092
v 0.20106095 -0.06369933 4.0808163
v 0.14034301 0.16289963 4.0808163
v 0.1289475 -0.044382364 3.2575743
v 0.10098636 0.0768362 1.9554193
v 0.13374579 -0.045789927 1.9553607
v 0.06609142 0.083372995 0.9318572
v 0.09827143 -0.03684301 0.93133426
v -0.06702858 0.15144058 3.2567866
v -0.08625835 0.22361527 4.0808153
v -0.021745682 0.10993387 1.9555444
v -0.054136455 0.11563413 0.9329134
v 0.035182446 -0.22958256 4.080816
v 0.01573795 -0.15750667 3.2573094
v -0.1914214 -0.16886693 4.080816
v -0.13867983 -0.11597262 3.2567868
v -0.2521345 0.057731986 4.080816
v -0.17997307 0.03839405 3.256531
v -0.08625835 0.22361527 4.0808153
v -0.06702858 0.15144058 3.2567866
v -0.111839026 0.020004094 1.9556106
v -0.021745682 0.10993387 1.9555444
v -0.14218819 0.027584478 0.93344456
v -0.054136455 0.11563413 0.9329134
v -0.07878414 -0.102934144 1.9555446
v -0.10995278 -0.0926948 0.93291366
v 0.044059336 -0.13561568 1.9554204
v 0.010294855 -0.12486108 0.93185794
vn -1.9914938E-5 -1.14883645E-4 1.0
vn -0.9577706 0.25649443 0.12994651
vn -0.25665194 0.9577237 0.12998115
vn -0.70108604 -0.7011506 0.12986977
vn -0.9010471 0.24153648 -0.36024183
vn -0.24150814 0.9010204 -0.36032775
vn -0.6596265 -0.6595465 -0.3604043
vn 0.24148066 -0.9010237 -0.3603381
vn 0.25666505 -0.95773345 0.12988311
vn -1.9914938E-5 -1.14883645E-4 1.0
vn 0.9577425 -0.2566124 0.12992081
vn 0.9010389 -0.24148232 -0.36029863
vn 0.65966505 0.65951437 -0.36039254
vn 0.70112324 0.7011002 0.1299417
vn -1.9914938E-5 -1.14883645E-4 1.0
vn -0.25665194 0.9577237 0.12998115
vn -0.24150814 0.9010204 -0.36032775
vn 0.89315176 -0.2393566 -0.38077345
vn 0.66883874 0.6462055 -0.36752316
vn 0.6461981 0.6693082 -0.36668053
vn 0.8931638 -0.23931147 -0.38077343
vn -0.2561504 0.8940474 -0.3675135
vn -0.224934 0.90275013 -0.3666701
vn -0.8931606 0.23934394 -0.3807605
vn -0.8931788 0.23927599 -0.38076046
vn -0.6688619 -0.64621747 -0.3674597
vn -0.64617664 -0.66936433 -0.36661583
vn 0.25615048 -0.8940718 -0.3674542
vn 0.22495148 -0.90276974 -0.3666108
vn 0.22495148 -0.90276974 -0.3666108
vn 0.25615048 -0.8940718 -0.3674542
vn -0.0 0.0 -1.0
vn -0.0 0.0 -1.0
vn -0.0 0.0 -1.0
vn -0.0 0.0 -1.0
vn -0.0 0.0 -1.0
vn -0.0 0.0 -1.0
vn -0.0 0.0 1.0
vn 4.5455765E-4 0.0017033627 0.99999845
vn -0.0 0.0 1.0
vn 4.5455765E-4 0.0017033628 0.99999845
vn -4.5752738E-4 -0.0017042679 0.99999845
vn -4.5752738E-4 -0.0017042678 0.99999845
vn 0.9037406 0.2327803 0.35925794
vn 0.9037406 0.23278031 0.35925794
vn 0.9037406 0.2327803 0.35925788
vn 0.9037406 0.2327803 0.35925788
vn 0.23580088 0.8801132 0.41206643
vn 0.23580088 0.8801132 0.41206643
vn 0.23580088 0.8801132 0.4120664
vn 0.23580088 0.8801132 0.41206643
vn -0.6662688 0.65347296 0.3592479
vn -0.6662688 0.65347296 0.3592479
vn -0.6662688 0.65347296 0.3592479
vn -0.6662688 0.65347296 0.3592479
vn -0.9037716 -0.23277184 0.3591854
vn -0.9037716 -0.23277181 0.3591854
vn -0.9037716 -0.23277181 0.3591854
vn -0.9037716 -0.23277181 0.35918537
vn -0.23583233 -0.880156 0.4119572
vn -0.23583233 -0.88015586 0.41195714
vn -0.23583233 -0.880156 0.4119572
vn -0.23583233 -0.880156 0.4119572
vn 0.66630965 -0.6534488 0.35921586
vn 0.66630965 -0.6534488 0.35921586
vn 0.66630965 -0.6534488 0.35921586
vn 0.66630965 -0.6534488 0.35921586
vn -0.9598782 0.25709024 -0.11197505
vn -0.9598782 0.25709024 -0.11197505
vn -0.9598782 0.25709024 -0.11197505
vn -0.9598782 0.25709027 -0.11197506
vn -0.9658948 0.25876087 0.009493001
vn -0.9658948 0.25876084 0.009493001
vn -0.9658948 0.25876087 0.009493001
vn 0.9604294 -0.25735494 0.10650771
vn 0.9604294 -0.25735494 0.10650771
vn 0.9604294 -0.25735494 0.10650771
vn -0.9083461 0.24340712 -0.34008887
vn -0.9083461 0.24340712 -0.34008887
vn -0.9083461 0.24340712 -0.3400888
vn -0.96573335 0.25860474 -0.02197014
vn -0.96573335 0.2586047 -0.021970138
vn -0.96573335 0.25860474 -0.021970138
vn 0.36102942 0.9316958 0.040008463
vn 0.39475548 0.9182834 0.030391604
vn 0.35457942 0.9340901 0.041824944
vn 0.39475548 0.9182834 0.030391604
vn 0.22269242 0.974554 0.025545958
vn 0.30014375 0.95298475 0.041640338
vn 0.20300038 0.97914726 -0.007841682
vn 0.29090628 0.95674074 0.004543685
vn 0.2909063 0.95674074 0.0045436854
vn 0.10770016 0.99148506 -0.07319909
vn 0.10770018 0.99148506 -0.0731991
vn -0.08530987 -0.9960901 0.022948535
vn -0.15647073 -0.9844652 0.07965749
vn -0.07837903 -0.99671125 0.02057692
vn -0.061671194 -0.99731964 0.039371938
vn -0.15756167 -0.98628706 0.0491148
vn -0.2473181 -0.9685525 -0.027200608
vn -0.2473181 -0.9685525 -0.027200608
vn -0.039058488 -0.999099 0.016602902
vn -0.03905849 -0.999099 0.0166029
vn -0.124151774 -0.991601 0.036245827
vn -0.124151774 -0.991601 0.036245827
vn 0.69658345 0.717475 0.0010951645
vn 0.96490365 -0.25862715 -0.04552828
vn 0.7088644 0.70493585 -0.024017109
vn 0.9659298 -0.25879973 -0.0014975679
vn -0.27264515 0.9620964 0.0059332545
vn -0.25570717 0.96654564 0.020082494
vn 0.2613934 -0.96494484 -0.023559848
vn 0.24453335 -0.96964025 0.0010987225
vn -0.7046222 -0.7092857 0.02052765
vn -0.71715003 -0.6968935 0.0059382506
vn -0.96507174 0.25849438 0.042628277
vn -0.9659006 0.25878376 0.008180841
vn -0.25570717 0.96654564 0.020082494
vn -0.27264515 0.9620964 0.0059332545
vn 0.7112069 0.7025831 0.023701396
vn 0.96535116 -0.25864634 0.034630634
vn 0.70645934 0.7062653 0.045874253
vn 0.96491075 -0.2585423 0.04585885
vn 0.70514643 0.7052081 0.07382454
vn 0.9632896 -0.25811434 0.07382427
vn -0.25814366 0.96328264 0.07381343
vn -0.25840902 0.9649446 0.04589958
vn -0.25272986 0.96753615 0.0011881277
vn -0.9658806 0.25877944 -0.010393051
vn -0.25272986 0.96753615 0.0011881277
vn -0.96490854 0.25854105 0.045911863
vn -0.25840902 0.9649446 0.04589958
vn -0.9632886 0.25812057 0.073816925
vn -0.25814366 0.96328264 0.07381343
vn -0.70515376 -0.70519984 0.07383295
vn -0.70624 -0.70648295 0.045900423
vn -0.70263004 -0.71155435 0.0011816196
vn 0.25813633 -0.9632834 0.07382891
vn 0.2587103 -0.96486527 0.045870937
vn 0.2646343 -0.9640577 0.023696978
vn -0.0 0.0 -1.0
vn -0.0 0.0 -1.0
vn -0.0 0.0 -1.0
vn -0.0 0.0 -1.0
vn -0.0 0.0 -1.0
vn -0.0 0.0 -1.0
vn 0.7033559 0.7089827 -0.05132327
vn 0.96197766 -0.25775176 -0.09034822
vn 0.7041276 0.7043059 -0.0903187
vn 0.9649967 -0.25854862 -0.043977182
vn 0.713378 0.7006151 -0.01517377
vn 0.96582395 -0.25871497 -0.01582843
vn 0.7088644 0.70493585 -0.024017109
vn 0.96490365 -0.25862715 -0.04552828
vn -0.2620062 0.96283007 -0.06565818
vn -0.2579046 0.9619455 -0.0902563
vn -0.24982627 0.9681998 -0.013265543
vn -0.25570717 0.96654564 0.020082494
vn 0.25763193 -0.9620133 -0.090311326
vn 0.25463927 -0.96567786 -0.051236227
vn -0.704334 -0.7041086 -0.09024852
vn -0.70834005 -0.7028192 -0.06557018
vn -0.9619883 0.25775585 -0.0902251
vn -0.9633709 0.2581454 -0.07264696
vn -0.2579046 0.9619455 -0.0902563
vn -0.2620062 0.96283007 -0.06565818
vn -0.96583855 0.25886708 -0.011995005
vn -0.24982627 0.9681998 -0.013265543
vn -0.96507174 0.25849438 0.042628277
vn -0.25570717 0.96654564 0.020082494
vn -0.700485 -0.7135537 -0.012723921
vn -0.7046222 -0.7092857 0.02052765
vn 0.26760098 -0.9634185 -0.014649389
vn 0.2613934 -0.96494484 -0.023559848
vt 0.17171778 0.78891146
vt 0.09064698 0.78891146
vt 0.09064698 0.74837613
vt 0.09064698 0.82944655
vt 0.009576545 0.78891146
vt 0.009576545 0.74837613
vt 0.009576545 0.82944655
vt 0.009576545 0.86998177
vt 0.09064698 0.86998177
vt 0.17171778 0.86998177
vt 0.09064698 0.91051763
vt 0.009576545 0.91051763
vt 0.009576545 0.95105255
vt 0.09064698 0.95105255
vt 0.17171778 0.95105255
vt 0.09064698 0.99158776
vt 0.009576545 0.99158776
vt 0.3486666 0.91078174
vt 0.40417773 0.837446
vt 0.3486666 0.837446
vt 0.40417773 0.91078174
vt 0.40417773 0.74773276
vt 0.3486666 0.74773276
vt 0.40417773 0.67243296
vt 0.3486666 0.67243296
vt 0.40417773 0.6020801
vt 0.3486666 0.6020801
vt 0.40417773 0.5350019
vt 0.3486666 0.5350019
vt 0.3486666 0.98324704
vt 0.40417773 0.98324704
vt 0.42244852 0.18047965
vt 0.442248 0.14618683
vt 0.42244852 0.11189377
vt 0.38285047 0.11189377
vt 0.38285047 0.18047965
vt 0.3630514 0.14618683
vt 0.4015139 0.10656911
vt 0.3584685 0.032012522
vt 0.4015139 0.0071602464
vt 0.3584685 0.081717074
vt 0.4445592 0.032012522
vt 0.4445592 0.081717074
vt 0.40417773 0.837446
vt 0.4806072 0.91078174
vt 0.4806072 0.837446
vt 0.40417773 0.91078174
vt 0.40417773 0.74773276
vt 0.4806072 0.837446
vt 0.4806072 0.74773276
vt 0.40417773 0.837446
vt 0.40417773 0.67243296
vt 0.4806072 0.74773276
vt 0.4806072 0.67243296
vt 0.40417773 0.74773276
vt 0.40417773 0.6020801
vt 0.4806072 0.67243296
vt 0.4806072 0.6020801
vt 0.40417773 0.67243296
vt 0.40417773 0.5350019
vt 0.4806072 0.6020801
vt 0.4806072 0.5350019
vt 0.40417773 0.6020801
vt 0.40417773 0.91078174
vt 0.4806072 0.98324704
vt 0.4806072 0.91078174
vt 0.40417773 0.98324704
vt 0.39944777 0.31074965
vt 0.41928074 0.4239927
vt 0.41928074 0.4239927
vt 0.39944777 0.31074965
vt 0.41928074 0.4239927
vt 0.41928074 0.4239927
vt 0.4282088 0.5111536
vt 0.40470365 0.5221679
vt 0.40126386 0.44396722
vt 0.40126386 0.44396722
vt 0.40126386 0.44396722
vt 0.40126386 0.44396722
vt 0.39221457 0.5162581
vt 0.38200614 0.25146955
vt 0.39944777 0.31074965
vt 0.39944777 0.31074965
vt 0.3757793 0.3154583
vt 0.38200614 0.25146955
vt 0.39944777 0.31074965
vt 0.36628538 0.2524206
vt 0.41928074 0.4239927
vt 0.38076526 0.41978127
vt 0.40126386 0.44396722
vt 0.39221457 0.5162581
vt 0.35818785 0.49248856
vt 0.4282088 0.5111536
vt 0.40470365 0.5221679
vt 0.3757793 0.3154583
vt 0.41928074 0.4239927
vt 0.39944777 0.31074965
vt 0.38076526 0.41978127
vt 0.40126386 0.44396722
vt 0.40470365 0.5221679
vt 0.4282088 0.5111536
vt 0.35818785 0.49248856
vt 0.39221457 0.5162581
vt 0.38200614 0.25146955
vt 0.36628538 0.2524206
vt 0.3056624 0.24751377
vt 0.27943632 0.0024231076
vt 0.3056624 0.0024231076
vt 0.27943632 0.24751377
vt 0.33188906 0.24751377
vt 0.33188906 0.0024231076
vt 0.25320947 0.0024231076
vt 0.25320947 0.24751377
vt 0.22698258 0.0024231076
vt 0.22698258 0.24751377
vt 0.20075612 0.0024231076
vt 0.20075612 0.24751377
vt 0.17452985 0.0024231076
vt 0.17452985 0.24751377
vt 0.3056624 0.4926036
vt 0.27943632 0.49260408
vt 0.3056624 0.7376938
vt 0.27943632 0.73769474
vt 0.3056624 0.98278475
vt 0.27943632 0.98278475
vt 0.33188906 0.98278475
vt 0.33188906 0.7376938
vt 0.33188906 0.4926036
vt 0.20075612 0.4926036
vt 0.17452985 0.4926036
vt 0.20075612 0.7376938
vt 0.17452985 0.7376938
vt 0.20075612 0.98278475
vt 0.17452985 0.98278475
vt 0.22698258 0.98278475
vt 0.22698258 0.7376938
vt 0.22698258 0.4926036
vt 0.25320947 0.98278475
vt 0.25320947 0.7376938
vt 0.25320947 0.4926036
vt 0.4640833 0.28356153
vt 0.39377868 0.24297088
vt 0.41721368 0.28356153
vt 0.4875183 0.24297088
vt 0.4640833 0.20238048
vt 0.41721368 0.20238048
vt 0.14192452 0.24798042
vt 0.115698464 0.00289011
vt 0.14192452 0.00289011
vt 0.115698464 0.24798077
vt 0.14192452 0.49307102
vt 0.115698464 0.49307102
vt 0.14192452 0.7381612
vt 0.115698464 0.7381612
vt 0.1681512 0.24798042
vt 0.1681512 0.00289011
vt 0.1681512 0.49307102
vt 0.1681512 0.7381612
vt 0.08947159 0.00289011
vt 0.08947159 0.24798042
vt 0.0632447 0.00289011
vt 0.0632447 0.24798042
vt 0.037018232 0.00289011
vt 0.037018232 0.24798042
vt 0.010791959 0.00289011
vt 0.010791959 0.24798042
vt 0.037018232 0.49307102
vt 0.010791959 0.49307102
vt 0.037018232 0.7381612
vt 0.010791959 0.7381612
vt 0.0632447 0.49307102
vt 0.0632447 0.7381612
vt 0.08947159 0.49307102
vt 0.08947159 0.7381612

g W_staff_01
s 1
usemtl W_staff_01
f 3/3/3 2/2/2 1/1/1 
f 2/2/2 4/4/4 1/1/1 
f 5/5/5 2/2/2 3/3/3 
f 6/6/6 5/5/5 3/3/3 
f 5/5/5 7/7/7 2/2/2 
f 7/7/7 4/4/4 2/2/2 
f 7/7/7 8/8/8 4/4/4 
f 8/8/8 9/9/9 4/4/4 
f 4/4/4 9/9/9 10/10/10 
f 9/9/9 11/11/11 10/10/10 
f 8/8/8 12/12/12 9/9/9 
f 12/12/12 11/11/11 9/9/9 
f 12/12/12 13/13/13 11/11/11 
f 13/13/13 14/14/14 11/11/11 
f 11/11/11 14/14/14 15/15/15 
f 14/14/14 16/16/16 15/15/15 
f 13/13/13 17/17/17 14/14/14 
f 17/17/17 16/16/16 14/14/14 
f 20/20/20 19/19/19 18/18/18 
f 19/19/19 21/21/21 18/18/18 
f 22/22/22 19/19/19 20/20/20 
f 23/23/23 22/22/22 20/20/20 
f 24/24/24 22/22/22 23/23/23 
f 25/25/25 24/24/24 23/23/23 
f 26/26/26 24/24/24 25/25/25 
f 27/27/27 26/26/26 25/25/25 
f 28/28/28 26/26/26 27/27/27 
f 29/29/29 28/28/28 27/27/27 
f 18/18/18 21/21/21 30/30/30 
f 21/21/21 31/31/31 30/30/30 
f 34/34/34 33/33/33 32/32/32 
f 32/32/32 35/35/35 34/34/34 
f 32/32/32 36/36/36 35/35/35 
f 36/36/36 37/37/37 35/35/35 
f 40/40/40 39/39/39 38/38/38 
f 39/39/39 41/41/41 38/38/38 
f 42/42/42 40/40/40 38/38/38 
f 43/43/43 42/42/42 38/38/38 
f 46/46/46 45/45/45 44/44/44 
f 45/45/45 47/47/47 44/44/44 
f 50/50/50 49/49/49 48/48/48 
f 49/49/49 51/51/51 48/48/48 
f 54/54/54 53/53/53 52/52/52 
f 53/53/53 55/55/55 52/52/52 
f 58/58/58 57/57/57 56/56/56 
f 57/57/57 59/59/59 56/56/56 
f 62/62/62 61/61/61 60/60/60 
f 61/61/61 63/63/63 60/60/60 
f 66/66/66 65/65/65 64/64/64 
f 65/65/65 67/67/67 64/64/64 
f 70/70/70 69/69/69 68/68/68 
f 69/69/69 71/71/71 68/68/68 
f 74/74/74 73/73/73 72/72/72 
f 77/77/77 76/76/76 75/75/75 
f 80/80/80 79/79/79 78/78/78 
f 83/83/83 82/82/82 81/81/81 
f 86/86/86 85/85/85 84/84/84 
f 85/85/85 87/87/87 84/84/84 
f 88/88/88 86/86/86 84/84/84 
f 89/89/89 88/88/88 84/84/84 
f 90/90/90 88/88/88 89/89/89 
f 91/91/91 90/90/90 89/89/89 
f 92/92/92 91/91/91 89/89/89 
f 93/93/93 88/88/88 90/90/90 
f 94/94/94 93/93/93 90/90/90 
f 97/97/97 96/96/96 95/95/95 
f 96/96/96 98/98/98 95/95/95 
f 99/99/99 98/98/98 96/96/96 
f 100/100/100 99/99/99 96/96/96 
f 101/101/101 100/100/100 96/96/96 
f 102/102/102 98/98/98 99/99/99 
f 103/103/103 102/102/102 99/99/99 
f 104/104/104 97/97/97 95/95/95 
f 105/105/105 104/104/104 95/95/95 
f 108/108/108 107/107/107 106/106/106 
f 107/107/107 109/109/109 106/106/106 
f 108/108/108 106/106/106 110/110/110 
f 111/111/111 108/108/108 110/110/110 
f 107/107/107 112/112/112 109/109/109 
f 112/112/112 113/113/113 109/109/109 
f 112/112/112 114/114/114 113/113/113 
f 114/114/114 115/115/115 113/113/113 
f 114/114/114 116/116/116 115/115/115 
f 116/116/116 117/117/117 115/115/115 
f 116/116/116 118/118/118 117/117/117 
f 118/118/118 119/119/119 117/117/117 
f 120/120/120 106/106/106 109/109/109 
f 121/121/121 120/120/120 109/109/109 
f 121/121/121 109/109/109 113/113/113 
f 122/122/122 120/120/120 121/121/121 
f 123/123/123 122/122/122 121/121/121 
f 124/124/124 122/122/122 123/123/123 
f 125/125/125 124/124/124 123/123/123 
f 124/124/124 126/126/126 122/122/122 
f 126/126/126 127/127/127 122/122/122 
f 122/122/122 127/127/127 120/120/120 
f 127/127/127 128/128/128 120/120/120 
f 120/120/120 128/128/128 106/106/106 
f 128/128/128 110/110/110 106/106/106 
f 129/129/129 117/117/117 119/119/119 
f 130/130/130 129/129/129 119/119/119 
f 131/131/131 129/129/129 130/130/130 
f 132/132/132 131/131/131 130/130/130 
f 133/133/133 131/131/131 132/132/132 
f 134/134/134 133/133/133 132/132/132 
f 133/133/133 135/135/135 131/131/131 
f 135/135/135 136/136/136 131/131/131 
f 131/131/131 136/136/136 129/129/129 
f 136/136/136 137/137/137 129/129/129 
f 129/129/129 137/137/137 117/117/117 
f 137/137/137 115/115/115 117/117/117 
f 135/135/135 138/138/138 136/136/136 
f 138/138/138 139/139/139 136/136/136 
f 136/136/136 139/139/139 137/137/137 
f 139/139/139 140/140/140 137/137/137 
f 137/137/137 140/140/140 115/115/115 
f 140/140/140 113/113/113 115/115/115 
f 138/138/138 125/125/125 139/139/139 
f 125/125/125 123/123/123 139/139/139 
f 139/139/139 123/123/123 140/140/140 
f 123/123/123 121/121/121 140/140/140 
f 140/140/140 121/121/121 113/113/113 
f 143/143/143 142/142/142 141/141/141 
f 142/142/142 144/144/144 141/141/141 
f 145/145/145 144/144/144 142/142/142 
f 146/146/146 145/145/145 142/142/142 
f 149/149/149 148/148/148 147/147/147 
f 148/148/148 150/150/150 147/147/147 
f 147/147/147 150/150/150 151/151/151 
f 150/150/150 152/152/152 151/151/151 
f 151/151/151 152/152/152 153/153/153 
f 152/152/152 154/154/154 153/153/153 
f 149/149/149 147/147/147 155/155/155 
f 156/156/156 149/149/149 155/155/155 
f 155/155/155 147/147/147 157/157/157 
f 147/147/147 151/151/151 157/157/157 
f 157/157/157 151/151/151 158/158/158 
f 151/151/151 153/153/153 158/158/158 
f 148/148/148 159/159/159 150/150/150 
f 159/159/159 160/160/160 150/150/150 
f 150/150/150 160/160/160 152/152/152 
f 159/159/159 161/161/161 160/160/160 
f 161/161/161 162/162/162 160/160/160 
f 161/161/161 163/163/163 162/162/162 
f 163/163/163 164/164/164 162/162/162 
f 163/163/163 165/165/165 164/164/164 
f 165/165/165 166/166/166 164/164/164 
f 164/164/164 166/166/166 167/167/167 
f 166/166/166 168/168/168 167/167/167 
f 167/167/167 168/168/168 169/169/169 
f 168/168/168 170/170/170 169/169/169 
f 162/162/162 164/164/164 171/171/171 
f 164/164/164 167/167/167 171/171/171 
f 171/171/171 167/167/167 172/172/172 
f 167/167/167 169/169/169 172/172/172 
f 160/160/160 162/162/162 173/173/173 
f 162/162/162 171/171/171 173/173/173 
f 173/173/173 171/171/171 174/174/174 
f 171/171/171 172/172/172 174/174/174 
f 160/160/160 173/173/173 152/152/152 
f 152/152/152 173/173/173 154/154/154 
f 173/173/173 174/174/174 154/154/154 

