# Created by DisUnity v0.3.4
v 0.5203603 -0.5431586 1.8697699
v 0.8613032 -0.4550565 0.7716756
v 0.49532074 -0.53501093 1.5980796
v 0.8623022 -0.46391982 1.7973578
v 1.196455 -0.33646512 0.79979455
v 1.1969202 -0.3407213 1.3007853
v 1.1080451 -0.37912714 1.5797731
v 1.1778774 -0.16509363 0.796914
v 1.1783807 -0.16963969 1.3349812
v 1.091001 -0.20830491 1.6191962
v 0.848287 -0.29386052 1.8407549
v 0.5098469 -0.37366387 1.914728
v 0.5098469 -0.37366387 1.914728
v 0.49022433 -0.36508906 1.5914158
v 1.0228863 -0.22316876 0.7072129
v 1.0415936 -0.3963102 0.7313328
v 0.8613032 -0.4550565 0.7716756
v 1.1962643 -0.33461922 0.57777154
v 1.0704489 -0.3182503 -1.3384566
v 0.769561 -0.43273798 -1.8123316
v 0.99047774 -0.3515608 -1.6200029
v 0.97475356 -0.18057084 -1.6428005
v 0.75649184 -0.26202267 -1.8387936
v 0.4624855 -0.51058847 -1.890144
v 0.45350572 -0.34081924 -1.9183115
v 1.0538168 -0.14707723 -1.3555744
v -0.458207 -0.50750625 -1.8865107
v -0.45787132 -0.33769122 -1.914725
v -0.7691355 -0.427489 -1.8062454
v -0.76570225 -0.25688052 -1.8328038
v -0.9938366 -0.344679 -1.524841
v -1.0754483 -0.311338 -1.2428783
v -0.85412866 -0.45864034 1.8034434
v -1.1969247 -0.33379376 1.3967657
v -1.10554 -0.37223008 1.6749383
v -1.0982234 -0.20188087 1.7138144
v -0.84976465 -0.28873363 1.846746
v -0.5072201 -0.5401069 1.8734044
v -0.50679284 -0.3705969 1.9183129
v -1.1886392 -0.1630173 1.4304143
v -1.0680783 -0.13976818 -1.2600935
v -0.98776346 -0.1734449 -1.5477312
v 0.3286107 -0.37549496 1.9152424
v 0.3317464 -0.5450354 1.8703101
v 0.49022433 -0.36508906 1.5914158
v 0.49022433 -0.36508906 1.5914158
v 0.3286107 -0.37549496 1.9152424
v -0.50679284 -0.3705969 1.9183129
v -0.45787132 -0.33769122 -1.914725
v -0.84976465 -0.28873363 1.846746
v -0.76570225 -0.25688052 -1.8328038
v -1.0680783 -0.13976818 -1.2600935
v -1.1886392 -0.1630173 1.4304143
v -1.0982234 -0.20188087 1.7138144
v -0.98776346 -0.1734449 -1.5477312
v 0.45350572 -0.34081924 -1.9183115
v 0.75649184 -0.26202267 -1.8387936
v 0.8470821 -0.28440222 0.7493406
v 1.1777172 -0.16365963 0.6241869
v 1.0538168 -0.14707723 -1.3555744
v 0.97475356 -0.18057084 -1.6428005
v 1.0228863 -0.22316876 0.7072129
v 1.1778774 -0.16509363 0.796914
v 1.1783807 -0.16963969 1.3349812
v 0.848287 -0.29386052 1.8407549
v 1.091001 -0.20830491 1.6191962
v 0.5098469 -0.37366387 1.914728
v 1.1777172 -0.16365963 0.6241869
v 1.0415936 -0.3963102 0.7313328
v 0.1652816 -0.43981487 -0.18594897
v 0.12449485 -0.059870973 -0.18115467
v 0.16525882 -0.3935812 -0.4297685
v 0.12447956 -0.15563501 -0.11222404
v 0.115896374 0.07272856 0.14327177
v 0.11588111 -0.05221042 0.1432721
v 0.11588855 0.07282092 0.5541446
v 0.115880914 -0.052194357 0.5541449
v 0.1244867 -0.13173774 0.90604377
v 0.12448673 -0.22745627 0.8371124
v 0.16525806 -0.3782125 1.146049
v 0.16526581 -0.42351633 0.9072572
v -0.10202956 -0.15565029 -0.11222437
v -0.14281628 -0.43986067 -0.18595266
v -0.093423724 -0.052301988 0.14327249
v -0.093408644 -0.05222489 0.55414486
v -0.10202238 -0.22742577 0.8371119
v -0.14280152 -0.4235774 0.9072599
v -0.10203767 -0.13175303 0.9060422
v -0.14280927 -0.37822777 1.1460502
v -0.10202238 -0.22742577 0.8371119
v -0.093408644 -0.05222489 0.55414486
v -0.0934239 0.07277514 0.5541445
v -0.093423724 -0.052301988 0.14327249
v -0.093416095 0.07272856 0.14327215
v -0.10202956 -0.15565029 -0.11222437
v -0.10203716 -0.059870988 -0.18115479
v -0.14281628 -0.43986067 -0.18595266
v -0.14280853 -0.39359647 -0.4297729
v -0.14280152 -0.4235774 0.9072599
v 0.010976747 -0.76409334 0.50087124
v -0.17509666 -0.72963864 0.6890501
v 0.079084225 -0.7296538 0.7579279
v -0.24322706 -0.7296239 0.4319929
v -0.057130754 -0.7296548 0.24381399
v 0.19704252 -0.7296852 0.3126918
v 0.26515 -0.72968465 0.56974846
v -0.22496253 -0.635522 0.9141383
v 0.01095362 -0.6355218 0.97807366
v -0.39768428 -0.6355834 0.73947096
v -0.46093953 -0.6355686 0.50086975
v -0.39769173 -0.6355843 0.26226956
v -0.22496215 -0.6355236 0.08760233
v 0.010961711 -0.63552374 0.023669064
v 0.24688548 -0.63558465 0.08760208
v 0.41960728 -0.6355843 0.26226994
v 0.48280144 -0.63556856 0.5008697
v 0.41960704 -0.63558334 0.73947084
v 0.2468927 -0.635583 0.9141395
v -0.2614616 -0.50699705 0.9780703
v 0.010984108 -0.5070274 1.0518963
v -0.46089387 -0.50696695 0.77638245
v -0.53388417 -0.5070285 0.50087076
v -0.46088594 -0.506968 0.22535771
v -0.2614611 -0.50699896 0.023667634
v 0.010977015 -0.50701433 -0.050154716
v 0.2833998 -0.5070294 0.023668379
v 0.48285496 -0.5069832 0.22535814
v 0.55583 -0.5069064 0.5008694
v 0.48283184 -0.5069974 0.7763815
v 0.28339934 -0.50702757 0.9780715
vn -0.42789522 -0.7047678 0.5658693
vn 0.28035918 -0.9597816 -0.014769866
vn 0.06938067 -0.9880425 0.13768908
vn 0.46137878 -0.6781448 0.57205707
vn 0.7959893 -0.44363695 -0.4118098
vn 0.8579285 -0.5062767 0.087422065
vn 0.752747 -0.56426245 0.33908674
vn 0.5191971 0.74004805 -0.4275082
vn 0.56778234 0.80917096 0.15121414
vn 0.49919072 0.71061337 0.49581993
vn 0.24287945 0.60117847 0.7613107
vn -0.5267036 0.40915632 0.7451002
vn -0.5267036 0.40915632 0.7451002
vn -0.14110343 0.97655165 0.16259336
vn 0.045951 0.99801373 0.043094162
vn 0.5223713 -0.8517809 -0.03996947
vn 0.33975333 -0.9404011 -0.01461488
vn 0.8520216 -0.4553912 0.25822112
vn 0.85806113 -0.49887958 -0.1218619
vn 0.4752488 -0.6416578 -0.6020081
vn 0.7712301 -0.5251105 -0.35980982
vn 0.48323873 0.7390748 -0.46930662
vn 0.23125087 0.64985037 -0.72402877
vn 0.15138851 -0.7459907 -0.6485209
vn 0.047280304 0.59117585 -0.8051557
vn 0.53850603 0.8323569 -0.1311228
vn -0.1611128 -0.7464983 -0.6455872
vn -0.048890006 0.58908135 -0.8065934
vn -0.5259156 -0.6232725 -0.5787436
vn -0.31472358 0.64273435 -0.6984567
vn -0.77782667 -0.5572351 -0.2906453
vn -0.84445155 -0.52385324 -0.11171104
vn -0.40363082 -0.71421534 0.5718203
vn -0.8506656 -0.52152365 0.066189304
vn -0.7046087 -0.57363623 0.4176938
vn -0.46655732 0.66469944 0.58352286
vn -0.11722136 0.58893204 0.79963624
vn -0.14559813 -0.78428054 0.60307986
vn -0.025404833 0.5457785 0.83754426
vn -0.59412724 0.7903234 0.14967185
vn -0.56723577 0.81308943 -0.13087802
vn -0.5224162 0.74841946 -0.40859482
vn 0.4010942 0.52496386 0.75069064
vn 0.41189876 -0.6845768 0.60141
vn -0.14110343 0.97655165 0.16259336
vn -0.14110343 0.97655165 0.16259336
vn 0.4010942 0.52496386 0.75069064
vn -0.025404833 0.5457785 0.83754426
vn -0.048890006 0.58908135 -0.8065934
vn -0.11722136 0.58893204 0.79963624
vn -0.31472358 0.64273435 -0.6984567
vn -0.56723577 0.81308943 -0.13087802
vn -0.59412724 0.7903234 0.14967185
vn -0.46655732 0.66469944 0.58352286
vn -0.5224162 0.74841946 -0.40859482
vn 0.047280304 0.59117585 -0.8051557
vn 0.23125087 0.64985037 -0.72402877
vn -0.28502244 0.95842355 0.013651079
vn 0.54052144 0.7306245 0.41716248
vn 0.53850603 0.8323569 -0.1311228
vn 0.48323873 0.7390748 -0.46930662
vn 0.045951 0.99801373 0.043094162
vn 0.5191971 0.74004805 -0.4275082
vn 0.56778234 0.80917096 0.15121414
vn 0.24287945 0.60117847 0.7613107
vn 0.49919072 0.71061337 0.49581993
vn -0.5267036 0.40915632 0.7451002
vn 0.54052144 0.7306245 0.41716248
vn 0.5223713 -0.8517809 -0.03996947
vn 0.73999685 -0.084814414 0.66724145
vn 0.63464874 0.63012594 -0.4473951
vn 0.59412223 0.5334004 -0.6020821
vn 0.8153802 -0.32261154 0.48070452
vn 0.6628523 0.7359485 -0.1378644
vn 0.75004995 -0.64665055 0.13880967
vn 0.65024084 0.73481286 0.19296858
vn 0.77170277 -0.60829526 -0.18561167
vn 0.65414464 0.6237092 0.4278804
vn 0.77357167 -0.32737765 -0.5425964
vn 0.5441181 0.6390943 0.5435936
vn 0.76731884 -0.101890266 -0.63311946
vn -0.81535304 -0.3225908 0.4807646
vn -0.7400015 -0.0848291 0.6672344
vn -0.74986285 -0.646852 0.13888146
vn -0.77159095 -0.6084138 -0.18568788
vn -0.7735732 -0.32741666 -0.54257053
vn -0.767297 -0.10193713 -0.63313836
vn -0.6542396 0.6236487 0.4278233
vn -0.5442733 0.6390294 0.54351443
vn -0.7735732 -0.32741666 -0.54257053
vn -0.77159095 -0.6084138 -0.18568788
vn -0.6503461 0.73472667 0.19294247
vn -0.74986285 -0.646852 0.13888146
vn -0.6628411 0.73596007 -0.13785712
vn -0.81535304 -0.3225908 0.4807646
vn -0.6346468 0.6301378 -0.44738114
vn -0.7400015 -0.0848291 0.6672344
vn -0.59421563 0.5333599 -0.6020257
vn -0.767297 -0.10193713 -0.63313836
vn -1.07889115E-4 -1.0 2.2935485E-5
vn -0.20188108 -0.9588449 0.19965073
vn 0.073902294 -0.9591593 0.27304158
vn -0.27547112 -0.9585342 -0.072992355
vn -0.07404615 -0.9591511 -0.27303174
vn 0.20187308 -0.9588491 -0.19963902
vn 0.27551204 -0.9585219 0.07299863
vn -0.3424491 -0.7224432 0.60067004
vn -0.006971203 -0.7229908 0.6908224
vn -0.60500234 -0.7210629 0.33769858
vn -0.69343585 -0.7204845 0.0069804243
vn -0.5979642 -0.72122455 -0.34967685
vn -0.35448202 -0.72226024 -0.5938708
vn 0.0068072155 -0.7229744 -0.6908412
vn 0.34239087 -0.72249174 -0.60064477
vn 0.60509235 -0.72103286 -0.33760178
vn 0.69344735 -0.7204735 -0.0069833295
vn 0.5980207 -0.72121805 0.34959397
vn 0.35442147 -0.72231567 0.5938397
vn -0.43658516 -0.4969467 0.7499583
vn -1.8227962E-5 -0.4980934 0.86712337
vn -0.75414765 -0.49467984 0.43191814
vn -0.8697197 -0.49354607 0.0
vn -0.754161 -0.4946484 -0.43193087
vn -0.43657616 -0.4969363 -0.74997044
vn -2.8888913E-5 -0.49808073 -0.86713064
vn 0.43655092 -0.49698752 -0.7499512
vn 0.75418174 -0.4948099 -0.43170953
vn 0.8696453 -0.4936772 0.0
vn 0.7541963 -0.49476805 0.431732
vn 0.43656522 -0.49697736 0.7499496
vt 0.8443531 0.037853956
vt 0.8933096 0.23352194
vt 0.81672907 0.08361554
vt 0.89183265 0.047113895
vt 0.95775676 0.22325039
vt 0.95700765 0.13360643
vt 0.9388043 0.0830853
vt 0.98595685 0.22309542
vt 0.9846846 0.13163948
vt 0.9641793 0.06712198
vt 0.90483415 0.02429676
vt 0.84487903 0.0072522163
vt 0.84487903 0.0072522163
vt 0.8163909 0.03681469
vt 0.95634675 0.24609423
vt 0.9290236 0.2394042
vt 0.8933096 0.23352194
vt 0.9565866 0.27418375
vt 0.9568862 0.60881805
vt 0.89090145 0.7051034
vt 0.93828547 0.6684003
vt 0.9572183 0.693104
vt 0.905264 0.735028
vt 0.82458186 0.7194574
vt 0.8272425 0.7495413
vt 0.9822228 0.615114
vt 0.6397745 0.7196512
vt 0.6349658 0.7460177
vt 0.56776655 0.7049322
vt 0.55292463 0.7294023
vt 0.5197 0.6619568
vt 0.50473034 0.5985706
vt 0.5704902 0.046416044
vt 0.50473946 0.15115476
vt 0.52381027 0.08107638
vt 0.49640277 0.060257673
vt 0.5603283 0.01765728
vt 0.63468766 0.033152103
vt 0.62939477 0.0036768913
vt 0.47874415 0.14965677
vt 0.46950966 0.59597063
vt 0.4914601 0.6721616
vt 0.78608996 0.0034153461
vt 0.78692544 0.035775185
vt 0.8163909 0.03681469
vt 0.32796305 0.070117235
vt 0.2972356 0.010883093
vt 0.13882619 0.010322332
vt 0.13837856 0.711452
vt 0.07437283 0.023414135
vt 0.07383525 0.69646883
vt 0.010712326 0.60474396
vt 0.011015952 0.11260176
vt 0.027882278 0.06076336
vt 0.027456641 0.6573584
vt 0.33117694 0.71210885
vt 0.39585757 0.69756436
vt 0.39623427 0.22414875
vt 0.45982397 0.24413896
vt 0.45960188 0.606272
vt 0.44262916 0.65881085
vt 0.43002337 0.22895145
vt 0.45984352 0.21254301
vt 0.45990407 0.114121914
vt 0.39639252 0.024509907
vt 0.44305193 0.062133074
vt 0.33162457 0.01097703
vt 0.99094796 0.27664995
vt 0.9290236 0.2394042
vt 0.9823116 0.9234515
vt 0.89864564 0.88477796
vt 0.9823118 0.88477856
vt 0.8986452 0.92345095
vt 0.8149792 0.8847768
vt 0.81497884 0.9234499
vt 0.73131275 0.88477594
vt 0.73131245 0.9234488
vt 0.64764625 0.8847749
vt 0.647646 0.9234479
vt 0.5639799 0.88477445
vt 0.5639797 0.9234474
vt 0.8986446 0.98797303
vt 0.98231095 0.9879734
vt 0.814978 0.9879722
vt 0.7313116 0.9879712
vt 0.64764524 0.98797023
vt 0.563979 0.9879696
vt 0.64764655 0.8202527
vt 0.5639803 0.8202523
vt 0.6476469 0.7916944
vt 0.7313132 0.79169536
vt 0.7313129 0.8202536
vt 0.8149798 0.79169637
vt 0.8149793 0.82025427
vt 0.898646 0.79169726
vt 0.89864576 0.8202555
vt 0.98231244 0.7916979
vt 0.9823122 0.8202561
vt 0.56398034 0.7916941
vt 0.38763154 0.85273695
vt 0.342061 0.80716646
vt 0.4043115 0.7904865
vt 0.32538107 0.8694169
vt 0.3709516 0.91498744
vt 0.43320212 0.8983075
vt 0.4498821 0.836057
vt 0.32985038 0.7526571
vt 0.38763362 0.73717487
vt 0.28755188 0.79495573
vt 0.27207124 0.85273683
vt 0.28755188 0.91051805
vt 0.32985038 0.95281667
vt 0.38763362 0.96829903
vt 0.44541484 0.9528167
vt 0.48771334 0.91051805
vt 0.50319403 0.85273707
vt 0.48771334 0.79495597
vt 0.44541484 0.7526571
vt 0.32091177 0.73717487
vt 0.38763362 0.7192973
vt 0.27207124 0.78601706
vt 0.254192 0.85273683
vt 0.27207124 0.9194568
vt 0.32091177 0.96829903
vt 0.38763362 0.9861766
vt 0.45435345 0.96829915
vt 0.50319403 0.9194568
vt 0.5210732 0.85273707
vt 0.50319403 0.7860173
vt 0.45435345 0.73717487

g W_shield_04_mesh
s 1
usemtl W_shield_04_mesh
f 3/3/3 2/2/2 1/1/1 
f 2/2/2 4/4/4 1/1/1 
f 4/4/4 2/2/2 5/5/5 
f 5/5/5 6/6/6 4/4/4 
f 6/6/6 7/7/7 4/4/4 
f 6/6/6 5/5/5 8/8/8 
f 9/9/9 6/6/6 8/8/8 
f 9/9/9 10/10/10 6/6/6 
f 10/10/10 7/7/7 6/6/6 
f 10/10/10 11/11/11 7/7/7 
f 11/11/11 4/4/4 7/7/7 
f 11/11/11 12/12/12 4/4/4 
f 12/12/12 1/1/1 4/4/4 
f 1/1/1 13/13/13 3/3/3 
f 13/13/13 14/14/14 3/3/3 
f 8/8/8 5/5/5 15/15/15 
f 5/5/5 16/16/16 15/15/15 
f 5/5/5 17/17/17 16/16/16 
f 16/16/16 17/17/17 18/18/18 
f 19/19/19 18/18/18 17/17/17 
f 17/17/17 20/20/20 19/19/19 
f 21/21/21 19/19/19 20/20/20 
f 22/22/22 21/21/21 20/20/20 
f 23/23/23 22/22/22 20/20/20 
f 23/23/23 20/20/20 24/24/24 
f 25/25/25 23/23/23 24/24/24 
f 22/22/22 26/26/26 21/21/21 
f 26/26/26 19/19/19 21/21/21 
f 19/19/19 26/26/26 18/18/18 
f 25/25/25 24/24/24 27/27/27 
f 28/28/28 25/25/25 27/27/27 
f 28/28/28 27/27/27 29/29/29 
f 30/30/30 28/28/28 29/29/29 
f 30/30/30 29/29/29 31/31/31 
f 32/32/32 31/31/31 29/29/29 
f 32/32/32 29/29/29 33/33/33 
f 33/33/33 29/29/29 27/27/27 
f 34/34/34 32/32/32 33/33/33 
f 35/35/35 34/34/34 33/33/33 
f 36/36/36 35/35/35 33/33/33 
f 37/37/37 36/36/36 33/33/33 
f 37/37/37 33/33/33 38/38/38 
f 38/38/38 33/33/33 27/27/27 
f 39/39/39 37/37/37 38/38/38 
f 36/36/36 40/40/40 35/35/35 
f 40/40/40 34/34/34 35/35/35 
f 40/40/40 41/41/41 34/34/34 
f 41/41/41 32/32/32 34/34/34 
f 41/41/41 42/42/42 32/32/32 
f 42/42/42 31/31/31 32/32/32 
f 42/42/42 30/30/30 31/31/31 
f 39/39/39 38/38/38 43/43/43 
f 38/38/38 44/44/44 43/43/43 
f 43/43/43 44/44/44 45/45/45 
f 44/44/44 3/3/3 45/45/45 
f 38/38/38 3/3/3 44/44/44 
f 27/27/27 3/3/3 38/38/38 
f 24/24/24 3/3/3 27/27/27 
f 24/24/24 20/20/20 3/3/3 
f 20/20/20 2/2/2 3/3/3 
f 48/48/48 47/47/47 46/46/46 
f 49/49/49 48/48/48 46/46/46 
f 48/48/48 49/49/49 50/50/50 
f 49/49/49 51/51/51 50/50/50 
f 50/50/50 51/51/51 52/52/52 
f 53/53/53 50/50/50 52/52/52 
f 50/50/50 53/53/53 54/54/54 
f 51/51/51 55/55/55 52/52/52 
f 56/56/56 49/49/49 46/46/46 
f 56/56/56 46/46/46 57/57/57 
f 46/46/46 58/58/58 57/57/57 
f 57/57/57 58/58/58 59/59/59 
f 60/60/60 57/57/57 59/59/59 
f 57/57/57 60/60/60 61/61/61 
f 62/62/62 59/59/59 58/58/58 
f 63/63/63 62/62/62 58/58/58 
f 63/63/63 58/58/58 64/64/64 
f 58/58/58 65/65/65 64/64/64 
f 65/65/65 66/66/66 64/64/64 
f 65/65/65 58/58/58 46/46/46 
f 67/67/67 65/65/65 46/46/46 
f 26/26/26 68/68/68 18/18/18 
f 16/16/16 18/18/18 68/68/68 
f 15/15/15 69/69/69 68/68/68 
f 72/72/72 71/71/71 70/70/70 
f 71/71/71 73/73/73 70/70/70 
f 71/71/71 74/74/74 73/73/73 
f 74/74/74 75/75/75 73/73/73 
f 74/74/74 76/76/76 75/75/75 
f 76/76/76 77/77/77 75/75/75 
f 76/76/76 78/78/78 77/77/77 
f 78/78/78 79/79/79 77/77/77 
f 78/78/78 80/80/80 79/79/79 
f 80/80/80 81/81/81 79/79/79 
f 73/73/73 82/82/82 70/70/70 
f 82/82/82 83/83/83 70/70/70 
f 75/75/75 84/84/84 73/73/73 
f 84/84/84 82/82/82 73/73/73 
f 77/77/77 85/85/85 75/75/75 
f 85/85/85 84/84/84 75/75/75 
f 79/79/79 86/86/86 77/77/77 
f 86/86/86 85/85/85 77/77/77 
f 81/81/81 87/87/87 79/79/79 
f 87/87/87 86/86/86 79/79/79 
f 78/78/78 88/88/88 80/80/80 
f 88/88/88 89/89/89 80/80/80 
f 89/89/89 88/88/88 90/90/90 
f 90/90/90 88/88/88 91/91/91 
f 88/88/88 92/92/92 91/91/91 
f 92/92/92 88/88/88 78/78/78 
f 91/91/91 92/92/92 93/93/93 
f 92/92/92 94/94/94 93/93/93 
f 93/93/93 94/94/94 95/95/95 
f 94/94/94 96/96/96 95/95/95 
f 95/95/95 96/96/96 97/97/97 
f 96/96/96 98/98/98 97/97/97 
f 99/99/99 89/89/89 90/90/90 
f 94/94/94 92/92/92 76/76/76 
f 76/76/76 92/92/92 78/78/78 
f 74/74/74 94/94/94 76/76/76 
f 96/96/96 94/94/94 74/74/74 
f 71/71/71 96/96/96 74/74/74 
f 98/98/98 96/96/96 71/71/71 
f 72/72/72 98/98/98 71/71/71 
f 102/102/102 101/101/101 100/100/100 
f 101/101/101 103/103/103 100/100/100 
f 103/103/103 104/104/104 100/100/100 
f 104/104/104 105/105/105 100/100/100 
f 105/105/105 106/106/106 100/100/100 
f 106/106/106 102/102/102 100/100/100 
f 107/107/107 101/101/101 102/102/102 
f 108/108/108 107/107/107 102/102/102 
f 107/107/107 109/109/109 101/101/101 
f 109/109/109 110/110/110 101/101/101 
f 110/110/110 103/103/103 101/101/101 
f 110/110/110 111/111/111 103/103/103 
f 111/111/111 112/112/112 103/103/103 
f 112/112/112 104/104/104 103/103/103 
f 112/112/112 113/113/113 104/104/104 
f 113/113/113 114/114/114 104/104/104 
f 114/114/114 105/105/105 104/104/104 
f 114/114/114 115/115/115 105/105/105 
f 115/115/115 116/116/116 105/105/105 
f 116/116/116 106/106/106 105/105/105 
f 116/116/116 117/117/117 106/106/106 
f 117/117/117 118/118/118 106/106/106 
f 118/118/118 102/102/102 106/106/106 
f 118/118/118 108/108/108 102/102/102 
f 119/119/119 107/107/107 108/108/108 
f 120/120/120 119/119/119 108/108/108 
f 120/120/120 108/108/108 118/118/118 
f 119/119/119 121/121/121 107/107/107 
f 121/121/121 109/109/109 107/107/107 
f 121/121/121 122/122/122 109/109/109 
f 122/122/122 110/110/110 109/109/109 
f 122/122/122 123/123/123 110/110/110 
f 123/123/123 111/111/111 110/110/110 
f 123/123/123 124/124/124 111/111/111 
f 124/124/124 112/112/112 111/111/111 
f 124/124/124 125/125/125 112/112/112 
f 125/125/125 113/113/113 112/112/112 
f 125/125/125 126/126/126 113/113/113 
f 126/126/126 114/114/114 113/113/113 
f 126/126/126 127/127/127 114/114/114 
f 127/127/127 115/115/115 114/114/114 
f 127/127/127 128/128/128 115/115/115 
f 128/128/128 116/116/116 115/115/115 
f 128/128/128 129/129/129 116/116/116 
f 129/129/129 117/117/117 116/116/116 
f 129/129/129 130/130/130 117/117/117 
f 130/130/130 118/118/118 117/117/117 
f 130/130/130 120/120/120 118/118/118 

